<svg width="816" height="88" viewBox="0 0 816 88" fill="none" xmlns="http://www.w3.org/2000/svg">
<path d="M20.7962 8C23.9569 8 26.4352 8.32742 28.231 8.98226C30.0987 9.57162 32.0024 10.4557 33.9419 11.6344C35.5223 12.5512 36.7435 13.0095 37.6055 13.0095C38.252 13.0095 38.7548 12.6821 39.114 12.0273C39.4732 11.307 39.7605 10.1937 39.976 8.68759H42.4543C42.0951 12.4857 41.9156 19.1651 41.9156 28.7258H39.4373C39.0063 23.4216 37.3181 18.9686 34.3729 15.367C31.4995 11.6999 27.2972 9.8663 21.7659 9.8663C17.8868 9.8663 14.7261 10.9468 12.2837 13.1078C9.84136 15.2033 8.62017 17.9209 8.62017 21.2606C8.62017 23.749 9.23076 25.91 10.452 27.7435C11.745 29.5771 13.3613 31.1487 15.3008 32.4584C17.2403 33.7681 20.006 35.4379 23.5977 37.4679L26.7225 39.236C31.2481 41.7899 34.8039 44.0491 37.39 46.0136C40.0479 47.9127 42.167 50.1064 43.7473 52.5948C45.3277 55.0832 46.1179 57.9973 46.1179 61.337C46.1179 67.296 43.9628 71.9127 39.6528 75.1869C35.3427 78.3956 29.8832 80 23.2744 80C19.8264 80 16.9889 79.6726 14.762 79.0177C12.607 78.3629 10.5238 77.4789 8.51241 76.3656C6.93205 75.4488 5.71086 74.9904 4.84884 74.9904C4.20233 74.9904 3.69949 75.3506 3.34031 76.0709C2.98114 76.7258 2.6938 77.8063 2.4783 79.3124H0C0.287339 75.7108 0.431008 67.8527 0.431008 55.7381H2.90931C3.41215 62.352 5.20802 67.7217 8.29691 71.8472C11.3858 75.9727 16.1269 78.0355 22.5202 78.0355C26.3993 78.0355 29.7037 76.955 32.4334 74.794C35.1631 72.5675 36.528 69.2933 36.528 64.9713C36.528 61.3042 35.1631 58.1937 32.4334 55.6398C29.7755 53.0859 25.5372 50.2046 19.7186 46.9959C15.4804 44.6385 12.0323 42.543 9.37443 40.7094C6.78838 38.8758 4.66926 36.6821 3.01706 34.1282C1.36486 31.5089 0.538761 28.4638 0.538761 24.9932C0.538761 19.4925 2.4783 15.3015 6.35737 12.4202C10.2364 9.4734 15.0494 8 20.7962 8Z" fill="#715442"/>
<path d="M131.677 11.045C129.091 11.176 127.188 11.4379 125.966 11.8308C124.817 12.2237 124.027 12.9768 123.596 14.09C123.165 15.2033 122.949 17.0041 122.949 19.4925V68.2128C122.949 70.7012 123.165 72.502 123.596 73.6153C124.027 74.7285 124.817 75.4816 125.966 75.8745C127.188 76.2674 129.091 76.5293 131.677 76.6603V78.6248C128.66 78.4284 124.063 78.3301 117.885 78.3301C112.066 78.3301 107.505 78.4284 104.2 78.6248V76.6603C106.787 76.5293 108.654 76.2674 109.804 75.8745C111.025 75.4816 111.851 74.7285 112.282 73.6153C112.713 72.502 112.928 70.7012 112.928 68.2128V44.6385H77.909V68.2128C77.909 70.7012 78.1245 72.502 78.5555 73.6153C78.9865 74.7285 79.7767 75.4816 80.926 75.8745C82.1472 76.2674 84.0508 76.5293 86.6369 76.6603V78.6248C83.3325 78.4284 78.771 78.3301 72.9524 78.3301C66.7746 78.3301 62.1772 78.4284 59.1601 78.6248V76.6603C61.7461 76.5293 63.6139 76.2674 64.7632 75.8745C65.9844 75.4816 66.8105 74.7285 67.2415 73.6153C67.6725 72.502 67.888 70.7012 67.888 68.2128V19.4925C67.888 17.0041 67.6725 15.2033 67.2415 14.09C66.8105 12.9768 65.9844 12.2237 64.7632 11.8308C63.6139 11.4379 61.7461 11.176 59.1601 11.045V9.08049C62.1772 9.27694 66.7746 9.37517 72.9524 9.37517C78.6991 9.37517 83.2606 9.27694 86.6369 9.08049V11.045C84.0508 11.176 82.1472 11.4379 80.926 11.8308C79.7767 12.2237 78.9865 12.9768 78.5555 14.09C78.1245 15.2033 77.909 17.0041 77.909 19.4925V42.6739H112.928V19.4925C112.928 17.0041 112.713 15.2033 112.282 14.09C111.851 12.9768 111.025 12.2237 109.804 11.8308C108.654 11.4379 106.787 11.176 104.2 11.045V9.08049C107.505 9.27694 112.066 9.37517 117.885 9.37517C124.063 9.37517 128.66 9.27694 131.677 9.08049V11.045Z" fill="#715442"/>
<path d="M199.112 66.0518C199.112 69.7844 199.364 73.9754 199.867 78.6248C194.982 78.4284 186.757 78.3301 175.191 78.3301C161.399 78.3301 150.983 78.4284 143.943 78.6248V76.6603C146.529 76.5293 148.397 76.2674 149.546 75.8745C150.768 75.4816 151.594 74.7285 152.025 73.6153C152.456 72.502 152.671 70.7012 152.671 68.2128V19.4925C152.671 17.0041 152.456 15.2033 152.025 14.09C151.594 12.9768 150.768 12.2237 149.546 11.8308C148.397 11.4379 146.529 11.176 143.943 11.045V9.08049C150.983 9.27694 161.399 9.37517 175.191 9.37517C185.751 9.37517 193.258 9.27694 197.712 9.08049C197.209 13.4025 196.957 17.266 196.957 20.6712C196.957 23.2251 197.065 25.2551 197.281 26.7613H194.802C194.299 22.5048 193.653 19.3615 192.863 17.3315C192.073 15.236 190.744 13.7299 188.876 12.8131C187.008 11.8308 184.171 11.3397 180.364 11.3397H171.42C168.834 11.3397 166.93 11.5362 165.709 11.9291C164.56 12.2565 163.77 12.9768 163.339 14.09C162.908 15.2033 162.692 17.0041 162.692 19.4925V42.6739H169.804C172.318 42.6739 174.258 42.1501 175.622 41.1023C176.987 39.9891 177.885 38.7121 178.316 37.2715C178.819 35.7653 179.214 33.899 179.501 31.6726L179.825 29.708H182.303C182.088 32.4584 181.98 35.5361 181.98 38.9413V43.6562C181.98 46.9959 182.195 51.6453 182.626 57.6044H180.148C180.076 57.146 179.861 55.5744 179.501 52.8895C179.142 50.1392 178.137 48.0764 176.484 46.7012C174.904 45.3261 172.677 44.6385 169.804 44.6385H162.692V68.2128C162.692 70.7012 162.908 72.502 163.339 73.6153C163.77 74.7285 164.56 75.4816 165.709 75.8745C166.93 76.2019 168.834 76.3656 171.42 76.3656H179.286C183.74 76.3656 187.116 75.8417 189.415 74.794C191.785 73.6808 193.509 71.9454 194.587 69.588C195.664 67.1651 196.454 63.6289 196.957 58.9795H199.436C199.22 60.7476 199.112 63.105 199.112 66.0518Z" fill="#715442"/>
<path d="M240.314 11.045C237.728 11.176 235.824 11.4379 234.603 11.8308C233.454 12.2237 232.664 12.9768 232.233 14.09C231.802 15.2033 231.586 17.0041 231.586 19.4925V68.2128C231.586 70.7012 231.802 72.502 232.233 73.6153C232.664 74.7285 233.454 75.4816 234.603 75.8745C235.824 76.2019 237.728 76.3656 240.314 76.3656H248.18C252.634 76.3656 256.01 75.809 258.309 74.6958C260.679 73.517 262.403 71.6507 263.481 69.0969C264.558 66.543 265.348 62.8431 265.851 57.9973H268.33C268.114 60.0273 268.006 62.7121 268.006 66.0518C268.006 69.7844 268.258 73.9754 268.761 78.6248C263.876 78.4284 255.651 78.3301 244.085 78.3301C230.293 78.3301 219.877 78.4284 212.837 78.6248V76.6603C215.423 76.5293 217.291 76.2674 218.44 75.8745C219.662 75.4816 220.488 74.7285 220.919 73.6153C221.35 72.502 221.565 70.7012 221.565 68.2128V19.4925C221.565 17.0041 221.35 15.2033 220.919 14.09C220.488 12.9768 219.662 12.2237 218.44 11.8308C217.291 11.4379 215.423 11.176 212.837 11.045V9.08049C215.854 9.27694 220.452 9.37517 226.63 9.37517C232.376 9.37517 236.938 9.27694 240.314 9.08049V11.045Z" fill="#715442"/>
<path d="M306.893 11.045C304.307 11.176 302.403 11.4379 301.182 11.8308C300.033 12.2237 299.243 12.9768 298.812 14.09C298.381 15.2033 298.165 17.0041 298.165 19.4925V68.2128C298.165 70.7012 298.381 72.502 298.812 73.6153C299.243 74.7285 300.033 75.4816 301.182 75.8745C302.403 76.2019 304.307 76.3656 306.893 76.3656H314.759C319.213 76.3656 322.589 75.809 324.888 74.6958C327.258 73.517 328.982 71.6507 330.06 69.0969C331.137 66.543 331.927 62.8431 332.43 57.9973H334.909C334.693 60.0273 334.585 62.7121 334.585 66.0518C334.585 69.7844 334.837 73.9754 335.34 78.6248C330.455 78.4284 322.23 78.3301 310.664 78.3301C296.872 78.3301 286.456 78.4284 279.416 78.6248V76.6603C282.002 76.5293 283.87 76.2674 285.019 75.8745C286.241 75.4816 287.067 74.7285 287.498 73.6153C287.929 72.502 288.144 70.7012 288.144 68.2128V19.4925C288.144 17.0041 287.929 15.2033 287.498 14.09C287.067 12.9768 286.241 12.2237 285.019 11.8308C283.87 11.4379 282.002 11.176 279.416 11.045V9.08049C282.433 9.27694 287.031 9.37517 293.209 9.37517C298.955 9.37517 303.517 9.27694 306.893 9.08049V11.045Z" fill="#715442"/>
<path d="M402.565 70.3738C404.289 74.4338 406.767 76.5293 410 76.6603V78.6248C407.127 78.4284 403.283 78.3301 398.471 78.3301C392.293 78.3301 387.695 78.4284 384.678 78.6248V76.6603C387.408 76.5293 389.348 76.2346 390.497 75.7763C391.718 75.2524 392.329 74.3356 392.329 73.0259C392.329 71.9127 391.898 70.3738 391.036 68.4093L384.463 52.3001H358.387L353.969 62.7121C352.532 66.2483 351.814 68.9332 351.814 70.7667C351.814 72.7967 352.568 74.2701 354.077 75.1869C355.657 76.1037 358.028 76.5948 361.188 76.6603V78.6248C357.094 78.4284 352.963 78.3301 348.797 78.3301C345.564 78.3301 342.87 78.4284 340.715 78.6248V76.6603C344.307 75.8745 347.145 73.0259 349.228 68.1146L374.55 8.58936H376.274L402.565 70.3738ZM383.601 50.3356L371.533 20.9659L359.249 50.3356H383.601Z" fill="#715442"/>
<path d="M450.904 8C454.081 8 456.572 8.32742 458.377 8.98226C460.255 9.57162 462.168 10.4557 464.118 11.6344C465.706 12.5512 466.934 13.0095 467.8 13.0095C468.45 13.0095 468.956 12.6821 469.317 12.0273C469.678 11.307 469.967 10.1937 470.183 8.68759H472.674C472.313 12.4857 472.133 19.1651 472.133 28.7258H469.642C469.208 23.4216 467.512 18.9686 464.551 15.367C461.663 11.6999 457.439 9.8663 451.879 9.8663C447.98 9.8663 444.802 10.9468 442.347 13.1078C439.892 15.2033 438.665 17.9209 438.665 21.2606C438.665 23.749 439.279 25.91 440.506 27.7435C441.806 29.5771 443.431 31.1487 445.38 32.4584C447.33 33.7681 450.11 35.4379 453.72 37.4679L456.861 39.236C461.41 41.7899 464.984 44.0491 467.584 46.0136C470.255 47.9127 472.386 50.1064 473.974 52.5948C475.563 55.0832 476.357 57.9973 476.357 61.337C476.357 67.296 474.191 71.9127 469.858 75.1869C465.526 78.3956 460.038 80 453.395 80C449.929 80 447.077 79.6726 444.839 79.0177C442.672 78.3629 440.578 77.4789 438.557 76.3656C436.968 75.4488 435.74 74.9904 434.874 74.9904C434.224 74.9904 433.719 75.3506 433.358 76.0709C432.997 76.7258 432.708 77.8063 432.491 79.3124H430C430.289 75.7108 430.433 67.8527 430.433 55.7381H432.924C433.43 62.352 435.235 67.7217 438.34 71.8472C441.445 75.9727 446.211 78.0355 452.637 78.0355C456.536 78.0355 459.858 76.955 462.602 74.794C465.345 72.5675 466.717 69.2933 466.717 64.9713C466.717 61.3042 465.345 58.1937 462.602 55.6398C459.93 53.0859 455.67 50.2046 449.821 46.9959C445.561 44.6385 442.095 42.543 439.423 40.7094C436.824 38.8758 434.693 36.6821 433.033 34.1282C431.372 31.5089 430.542 28.4638 430.542 24.9932C430.542 19.4925 432.491 15.3015 436.39 12.4202C440.29 9.4734 445.127 8 450.904 8Z" fill="black"/>
<path d="M450.904 8C454.081 8 456.572 8.32742 458.377 8.98226C460.255 9.57162 462.168 10.4557 464.118 11.6344C465.706 12.5512 466.934 13.0095 467.8 13.0095C468.45 13.0095 468.956 12.6821 469.317 12.0273C469.678 11.307 469.967 10.1937 470.183 8.68759H472.674C472.313 12.4857 472.133 19.1651 472.133 28.7258H469.642C469.208 23.4216 467.512 18.9686 464.551 15.367C461.663 11.6999 457.439 9.8663 451.879 9.8663C447.98 9.8663 444.802 10.9468 442.347 13.1078C439.892 15.2033 438.665 17.9209 438.665 21.2606C438.665 23.749 439.279 25.91 440.506 27.7435C441.806 29.5771 443.431 31.1487 445.38 32.4584C447.33 33.7681 450.11 35.4379 453.72 37.4679L456.861 39.236C461.41 41.7899 464.984 44.0491 467.584 46.0136C470.255 47.9127 472.386 50.1064 473.974 52.5948C475.563 55.0832 476.357 57.9973 476.357 61.337C476.357 67.296 474.191 71.9127 469.858 75.1869C465.526 78.3956 460.038 80 453.395 80C449.929 80 447.077 79.6726 444.839 79.0177C442.672 78.3629 440.578 77.4789 438.557 76.3656C436.968 75.4488 435.74 74.9904 434.874 74.9904C434.224 74.9904 433.719 75.3506 433.358 76.0709C432.997 76.7258 432.708 77.8063 432.491 79.3124H430C430.289 75.7108 430.433 67.8527 430.433 55.7381H432.924C433.43 62.352 435.235 67.7217 438.34 71.8472C441.445 75.9727 446.211 78.0355 452.637 78.0355C456.536 78.0355 459.858 76.955 462.602 74.794C465.345 72.5675 466.717 69.2933 466.717 64.9713C466.717 61.3042 465.345 58.1937 462.602 55.6398C459.93 53.0859 455.67 50.2046 449.821 46.9959C445.561 44.6385 442.095 42.543 439.423 40.7094C436.824 38.8758 434.693 36.6821 433.033 34.1282C431.372 31.5089 430.542 28.4638 430.542 24.9932C430.542 19.4925 432.491 15.3015 436.39 12.4202C440.29 9.4734 445.127 8 450.904 8Z" fill="#715442"/>
<path d="M545.801 70.3738C547.534 74.4338 550.025 76.5293 553.275 76.6603V78.6248C550.386 78.4284 546.523 78.3301 541.685 78.3301C535.475 78.3301 530.854 78.4284 527.822 78.6248V76.6603C530.565 76.5293 532.515 76.2346 533.67 75.7763C534.898 75.2524 535.512 74.3356 535.512 73.0259C535.512 71.9127 535.078 70.3738 534.212 68.4093L527.605 52.3001H501.394L496.953 62.7121C495.509 66.2483 494.787 68.9332 494.787 70.7667C494.787 72.7967 495.545 74.2701 497.061 75.1869C498.65 76.1037 501.033 76.5948 504.21 76.6603V78.6248C500.094 78.4284 495.942 78.3301 491.754 78.3301C488.505 78.3301 485.797 78.4284 483.631 78.6248V76.6603C487.241 75.8745 490.093 73.0259 492.187 68.1146L517.64 8.58936H519.373L545.801 70.3738ZM526.738 50.3356L514.608 20.9659L502.26 50.3356H526.738Z" fill="black"/>
<path d="M545.801 70.3738C547.534 74.4338 550.025 76.5293 553.275 76.6603V78.6248C550.386 78.4284 546.523 78.3301 541.685 78.3301C535.475 78.3301 530.854 78.4284 527.822 78.6248V76.6603C530.565 76.5293 532.515 76.2346 533.67 75.7763C534.898 75.2524 535.512 74.3356 535.512 73.0259C535.512 71.9127 535.078 70.3738 534.212 68.4093L527.605 52.3001H501.394L496.953 62.7121C495.509 66.2483 494.787 68.9332 494.787 70.7667C494.787 72.7967 495.545 74.2701 497.061 75.1869C498.65 76.1037 501.033 76.5948 504.21 76.6603V78.6248C500.094 78.4284 495.942 78.3301 491.754 78.3301C488.505 78.3301 485.797 78.4284 483.631 78.6248V76.6603C487.241 75.8745 490.093 73.0259 492.187 68.1146L517.64 8.58936H519.373L545.801 70.3738ZM526.738 50.3356L514.608 20.9659L502.26 50.3356H526.738Z" fill="#715442"/>
<path d="M626.805 11.045C624.278 11.176 622.4 11.5362 621.173 12.1255C619.945 12.6494 619.115 13.5662 618.682 14.8759C618.248 16.1201 618.032 17.9864 618.032 20.4748V50.0409C618.032 54.7558 617.671 58.8158 616.949 62.221C616.299 65.5607 615.179 68.442 613.591 70.8649C611.786 73.6808 609.114 75.9072 605.576 77.5443C602.11 79.1814 598.175 80 593.77 80C585.827 80 579.762 78.2319 575.574 74.6958C572.397 72.0109 570.267 68.9659 569.184 65.5607C568.1 62.1555 567.559 57.0805 567.559 50.3356V19.4925C567.559 17.0041 567.342 15.2033 566.909 14.09C566.476 12.9768 565.645 12.2237 564.418 11.8308C563.263 11.4379 561.385 11.176 558.786 11.045V9.08049C561.818 9.27694 566.44 9.37517 572.649 9.37517C578.498 9.37517 583.083 9.27694 586.405 9.08049V11.045C583.805 11.176 581.892 11.4379 580.664 11.8308C579.509 12.2237 578.715 12.9768 578.282 14.09C577.848 15.2033 577.632 17.0041 577.632 19.4925V52.0055C577.632 57.2442 578.029 61.5989 578.823 65.0696C579.617 68.5402 581.242 71.3233 583.697 73.4188C586.224 75.5143 589.907 76.5621 594.745 76.5621C602.399 76.5621 607.778 74.3356 610.883 69.8827C613.988 65.4297 615.541 59.176 615.541 51.1214V20.4748C615.541 16.9386 614.818 14.5157 613.374 13.206C612.002 11.8963 609.439 11.176 605.684 11.045V9.08049C608.284 9.27694 611.966 9.37517 616.732 9.37517C621.064 9.37517 624.422 9.27694 626.805 9.08049V11.045Z" fill="black"/>
<path d="M626.805 11.045C624.278 11.176 622.4 11.5362 621.173 12.1255C619.945 12.6494 619.115 13.5662 618.682 14.8759C618.248 16.1201 618.032 17.9864 618.032 20.4748V50.0409C618.032 54.7558 617.671 58.8158 616.949 62.221C616.299 65.5607 615.179 68.442 613.591 70.8649C611.786 73.6808 609.114 75.9072 605.576 77.5443C602.11 79.1814 598.175 80 593.77 80C585.827 80 579.762 78.2319 575.574 74.6958C572.397 72.0109 570.267 68.9659 569.184 65.5607C568.1 62.1555 567.559 57.0805 567.559 50.3356V19.4925C567.559 17.0041 567.342 15.2033 566.909 14.09C566.476 12.9768 565.645 12.2237 564.418 11.8308C563.263 11.4379 561.385 11.176 558.786 11.045V9.08049C561.818 9.27694 566.44 9.37517 572.649 9.37517C578.498 9.37517 583.083 9.27694 586.405 9.08049V11.045C583.805 11.176 581.892 11.4379 580.664 11.8308C579.509 12.2237 578.715 12.9768 578.282 14.09C577.848 15.2033 577.632 17.0041 577.632 19.4925V52.0055C577.632 57.2442 578.029 61.5989 578.823 65.0696C579.617 68.5402 581.242 71.3233 583.697 73.4188C586.224 75.5143 589.907 76.5621 594.745 76.5621C602.399 76.5621 607.778 74.3356 610.883 69.8827C613.988 65.4297 615.541 59.176 615.541 51.1214V20.4748C615.541 16.9386 614.818 14.5157 613.374 13.206C612.002 11.8963 609.439 11.176 605.684 11.045V9.08049C608.284 9.27694 611.966 9.37517 616.732 9.37517C621.064 9.37517 624.422 9.27694 626.805 9.08049V11.045Z" fill="#715442"/>
<path d="M694.243 70.6685C695.471 72.3056 696.807 73.6153 698.251 74.5975C699.767 75.5143 701.609 76.2019 703.775 76.6603V78.6248C700.309 78.4284 695.976 78.3301 690.778 78.3301C686.878 78.3301 683.16 78.4284 679.622 78.6248V76.6603C681.355 76.5948 682.618 76.3984 683.412 76.0709C684.207 75.7435 684.604 75.2524 684.604 74.5975C684.604 73.9427 684.243 73.1569 683.521 72.2401L667.707 50.6303C665.613 47.749 663.844 45.8827 662.4 45.0314C660.956 44.1146 658.934 43.5907 656.335 43.4598V68.2128C656.335 70.7012 656.551 72.502 656.985 73.6153C657.418 74.7285 658.212 75.4816 659.367 75.8745C660.595 76.2674 662.508 76.5293 665.108 76.6603V78.6248C661.786 78.4284 657.201 78.3301 651.352 78.3301C645.143 78.3301 640.521 78.4284 637.489 78.6248V76.6603C640.088 76.5293 641.966 76.2674 643.121 75.8745C644.348 75.4816 645.179 74.7285 645.612 73.6153C646.045 72.502 646.262 70.7012 646.262 68.2128V19.4925C646.262 17.0041 646.045 15.2033 645.612 14.09C645.179 12.9768 644.348 12.2237 643.121 11.8308C641.966 11.4379 640.088 11.176 637.489 11.045V9.08049C640.521 9.27694 645.143 9.37517 651.352 9.37517C657.129 9.37517 661.714 9.27694 665.108 9.08049V11.045C662.508 11.176 660.595 11.4379 659.367 11.8308C658.212 12.2237 657.418 12.9768 656.985 14.09C656.551 15.2033 656.335 17.0041 656.335 19.4925V41.4952C661.606 41.2988 665.722 39.4652 668.682 35.9945L679.08 24.0109C682.763 19.8854 684.604 16.7422 684.604 14.5812C684.604 12.2892 682.365 11.1105 677.889 11.045V9.08049C682.004 9.27694 686.156 9.37517 690.344 9.37517C694.316 9.37517 697.385 9.27694 699.551 9.08049V11.045C697.168 11.3724 694.929 12.0928 692.835 13.206C690.741 14.2538 688.72 15.9236 686.77 18.2156L669.115 38.7449L694.243 70.6685Z" fill="black"/>
<path d="M694.243 70.6685C695.471 72.3056 696.807 73.6153 698.251 74.5975C699.767 75.5143 701.609 76.2019 703.775 76.6603V78.6248C700.309 78.4284 695.976 78.3301 690.778 78.3301C686.878 78.3301 683.16 78.4284 679.622 78.6248V76.6603C681.355 76.5948 682.618 76.3984 683.412 76.0709C684.207 75.7435 684.604 75.2524 684.604 74.5975C684.604 73.9427 684.243 73.1569 683.521 72.2401L667.707 50.6303C665.613 47.749 663.844 45.8827 662.4 45.0314C660.956 44.1146 658.934 43.5907 656.335 43.4598V68.2128C656.335 70.7012 656.551 72.502 656.985 73.6153C657.418 74.7285 658.212 75.4816 659.367 75.8745C660.595 76.2674 662.508 76.5293 665.108 76.6603V78.6248C661.786 78.4284 657.201 78.3301 651.352 78.3301C645.143 78.3301 640.521 78.4284 637.489 78.6248V76.6603C640.088 76.5293 641.966 76.2674 643.121 75.8745C644.348 75.4816 645.179 74.7285 645.612 73.6153C646.045 72.502 646.262 70.7012 646.262 68.2128V19.4925C646.262 17.0041 646.045 15.2033 645.612 14.09C645.179 12.9768 644.348 12.2237 643.121 11.8308C641.966 11.4379 640.088 11.176 637.489 11.045V9.08049C640.521 9.27694 645.143 9.37517 651.352 9.37517C657.129 9.37517 661.714 9.27694 665.108 9.08049V11.045C662.508 11.176 660.595 11.4379 659.367 11.8308C658.212 12.2237 657.418 12.9768 656.985 14.09C656.551 15.2033 656.335 17.0041 656.335 19.4925V41.4952C661.606 41.2988 665.722 39.4652 668.682 35.9945L679.08 24.0109C682.763 19.8854 684.604 16.7422 684.604 14.5812C684.604 12.2892 682.365 11.1105 677.889 11.045V9.08049C682.004 9.27694 686.156 9.37517 690.344 9.37517C694.316 9.37517 697.385 9.27694 699.551 9.08049V11.045C697.168 11.3724 694.929 12.0928 692.835 13.206C690.741 14.2538 688.72 15.9236 686.77 18.2156L669.115 38.7449L694.243 70.6685Z" fill="#715442"/>
<path d="M739.33 11.045C736.731 11.176 734.817 11.4379 733.59 11.8308C732.435 12.2237 731.64 12.9768 731.207 14.09C730.774 15.2033 730.557 17.0041 730.557 19.4925V68.2128C730.557 70.7012 730.774 72.502 731.207 73.6153C731.64 74.7285 732.435 75.4816 733.59 75.8745C734.817 76.2674 736.731 76.5293 739.33 76.6603V78.6248C736.009 78.4284 731.424 78.3301 725.575 78.3301C719.365 78.3301 714.744 78.4284 711.711 78.6248V76.6603C714.311 76.5293 716.188 76.2674 717.343 75.8745C718.571 75.4816 719.401 74.7285 719.834 73.6153C720.268 72.502 720.484 70.7012 720.484 68.2128V19.4925C720.484 17.0041 720.268 15.2033 719.834 14.09C719.401 12.9768 718.571 12.2237 717.343 11.8308C716.188 11.4379 714.311 11.176 711.711 11.045V9.08049C714.744 9.27694 719.365 9.37517 725.575 9.37517C731.351 9.37517 735.937 9.27694 739.33 9.08049V11.045Z" fill="black"/>
<path d="M739.33 11.045C736.731 11.176 734.817 11.4379 733.59 11.8308C732.435 12.2237 731.64 12.9768 731.207 14.09C730.774 15.2033 730.557 17.0041 730.557 19.4925V68.2128C730.557 70.7012 730.774 72.502 731.207 73.6153C731.64 74.7285 732.435 75.4816 733.59 75.8745C734.817 76.2674 736.731 76.5293 739.33 76.6603V78.6248C736.009 78.4284 731.424 78.3301 725.575 78.3301C719.365 78.3301 714.744 78.4284 711.711 78.6248V76.6603C714.311 76.5293 716.188 76.2674 717.343 75.8745C718.571 75.4816 719.401 74.7285 719.834 73.6153C720.268 72.502 720.484 70.7012 720.484 68.2128V19.4925C720.484 17.0041 720.268 15.2033 719.834 14.09C719.401 12.9768 718.571 12.2237 717.343 11.8308C716.188 11.4379 714.311 11.176 711.711 11.045V9.08049C714.744 9.27694 719.365 9.37517 725.575 9.37517C731.351 9.37517 735.937 9.27694 739.33 9.08049V11.045Z" fill="#715442"/>
<path d="M808.527 70.3738C810.26 74.4338 812.751 76.5293 816 76.6603V78.6248C813.112 78.4284 809.249 78.3301 804.411 78.3301C798.201 78.3301 793.58 78.4284 790.547 78.6248V76.6603C793.291 76.5293 795.24 76.2346 796.396 75.7763C797.623 75.2524 798.237 74.3356 798.237 73.0259C798.237 71.9127 797.804 70.3738 796.937 68.4093L790.33 52.3001H764.119L759.678 62.7121C758.234 66.2483 757.512 68.9332 757.512 70.7667C757.512 72.7967 758.27 74.2701 759.787 75.1869C761.375 76.1037 763.758 76.5948 766.935 76.6603V78.6248C762.819 78.4284 758.668 78.3301 754.48 78.3301C751.23 78.3301 748.522 78.4284 746.356 78.6248V76.6603C749.967 75.8745 752.819 73.0259 754.913 68.1146L780.366 8.58936H782.099L808.527 70.3738ZM789.464 50.3356L777.333 20.9659L764.986 50.3356H789.464Z" fill="black"/>
<path d="M808.527 70.3738C810.26 74.4338 812.751 76.5293 816 76.6603V78.6248C813.112 78.4284 809.249 78.3301 804.411 78.3301C798.201 78.3301 793.58 78.4284 790.547 78.6248V76.6603C793.291 76.5293 795.24 76.2346 796.396 75.7763C797.623 75.2524 798.237 74.3356 798.237 73.0259C798.237 71.9127 797.804 70.3738 796.937 68.4093L790.33 52.3001H764.119L759.678 62.7121C758.234 66.2483 757.512 68.9332 757.512 70.7667C757.512 72.7967 758.27 74.2701 759.787 75.1869C761.375 76.1037 763.758 76.5948 766.935 76.6603V78.6248C762.819 78.4284 758.668 78.3301 754.48 78.3301C751.23 78.3301 748.522 78.4284 746.356 78.6248V76.6603C749.967 75.8745 752.819 73.0259 754.913 68.1146L780.366 8.58936H782.099L808.527 70.3738ZM789.464 50.3356L777.333 20.9659L764.986 50.3356H789.464Z" fill="#715442"/>
</svg>
