<svg width="58" height="76" viewBox="0 0 58 76" fill="none" xmlns="http://www.w3.org/2000/svg">
<path fill-rule="evenodd" clip-rule="evenodd" d="M29.1909 3.8C28.9663 3.54694 28.6847 3.43432 28.3463 3.46214C25.3436 7.52633 25.2122 11.6933 27.9521 15.9631C28.4026 16.5637 28.8531 16.5637 29.3036 15.9631C31.9673 11.8794 31.9298 7.82505 29.1909 3.8ZM28.5717 4.47574C31.0926 8.08823 31.1114 11.7297 28.628 15.4C26.1784 11.768 26.1596 8.12655 28.5717 4.47574Z" fill="white"/>
<path fill-rule="evenodd" clip-rule="evenodd" d="M28.9138 0.984375H28.3507C27.5771 1.88923 26.8826 2.86528 26.2672 3.91253C25.8279 4.57429 25.5087 5.28755 25.3099 6.05234C25.001 5.95231 24.7007 5.82092 24.409 5.65817C23.2578 5.58939 22.7323 6.13372 22.8323 7.29118C20.7144 6.7396 18.9688 7.30271 17.5954 8.9805C17.2479 9.48732 16.9289 10.0129 16.6381 10.5572C15.3014 9.89287 14.5882 10.3058 14.4983 11.796C12.699 11.5416 11.3288 12.1798 10.3876 13.7106C10.0572 14.2702 9.85072 14.8708 9.76819 15.5125C8.63789 15.3724 8.16865 15.8604 8.36042 16.9766C8.44877 17.1778 8.58017 17.3467 8.75459 17.4834C7.44448 18.7113 7.59464 19.7249 9.20508 20.5242C8.694 20.7171 8.52507 21.0738 8.69828 21.5941C9.098 21.9911 9.52971 22.0286 9.99343 21.7067H9.3177V20.13C9.06869 20.0774 8.84345 19.9648 8.64197 19.7922C8.81601 19.6849 9.00371 19.6474 9.20508 19.6795C9.07125 19.5822 8.93987 19.4696 8.8109 19.3417C8.76129 18.3032 9.26809 17.8339 10.3313 17.9339C10.9617 18.7364 11.7501 19.3182 12.6963 19.6795C12.6668 19.5131 12.7043 19.363 12.809 19.2291C13.3028 19.3618 13.7909 19.5121 14.273 19.6795C15.4354 19.6058 16.5991 19.587 17.7643 19.6232C17.582 19.5966 17.4694 19.5028 17.4264 19.3417C16.1454 19.5011 14.8689 19.4823 13.5973 19.2854C11.3496 18.4852 10.4299 16.9273 10.8381 14.6116C11.4771 13.1567 12.5846 12.4998 14.1604 12.6407C15.8849 12.9559 16.5043 13.9508 16.0187 15.6252C15.1954 16.5413 14.3884 16.5225 13.5973 15.5689C13.4096 15.4937 13.2219 15.4937 13.0342 15.5689C12.9417 16.014 13.0919 16.3894 13.4847 16.6951C15.3734 17.5245 16.5935 16.9427 17.1449 14.9494C18.6769 16.8335 20.6478 18.016 23.0575 18.497C22.9949 18.5401 22.9574 18.5965 22.9449 18.6659H23.508C23.4957 18.1727 23.2705 18.0224 22.8323 18.2155V17.8776C22.4632 17.8456 22.1067 17.8831 21.7624 17.9902C21.6152 17.847 21.4462 17.7343 21.2556 17.6524C21.3774 17.6243 21.5276 17.6056 21.7061 17.596C21.4513 17.5171 21.3387 17.3857 21.3682 17.2019C21.735 17.4698 22.148 17.5824 22.607 17.5397C21.6767 17.2442 20.7757 16.85 19.9041 16.3572C17.6973 15.1151 16.8903 13.2568 17.4828 10.7824C18.3666 8.6232 19.962 7.70345 22.2692 8.02322C23.4181 8.32651 24.0564 9.05855 24.1837 10.2193C24.2149 11.0496 23.8771 11.669 23.1701 12.0776C21.9213 12.4955 21.1892 12.0638 20.974 10.7824C20.7113 10.4821 20.4484 10.4821 20.1857 10.7824C20.1518 11.8768 20.6586 12.6088 21.7061 12.9786C22.9694 13.2214 23.9643 12.8272 24.6905 11.796C25.1898 14.1609 26.1846 16.282 27.675 18.1591C27.3392 18.2152 27.0013 18.234 26.6614 18.2155C27.3246 18.4051 27.9629 18.33 28.576 17.9902C28.8064 18.1552 29.0129 18.1177 29.1954 17.8776C29.8546 18.4671 30.5491 18.5422 31.2789 18.1028C30.7948 18.1817 30.3068 18.2192 29.8148 18.2155C30.3627 17.0824 30.9446 15.9562 31.5604 14.8368C31.9063 13.8553 32.263 12.8793 32.6303 11.9087C33.1559 12.5938 33.8505 12.9692 34.7138 13.0349C36.0779 13.0591 36.8475 12.4021 37.0226 11.064C37.0672 10.6204 36.8794 10.4702 36.4595 10.6135C36.3079 11.0114 36.139 11.4056 35.9527 11.796C34.8535 12.5348 33.9525 12.3471 33.2498 11.2329C32.7627 9.63554 33.307 8.56564 34.8828 8.02322C37.4377 7.71448 39.1082 8.78438 39.8944 11.2329C40.2443 13.1883 39.6249 14.7462 38.0362 15.9067C36.4938 16.8645 34.8421 17.5215 33.0808 17.8776H34.5449V18.3281C35.1161 18.1941 35.6792 18.0251 36.2342 17.8213C37.8588 17.2469 39.1539 16.2521 40.1197 14.8368C40.2567 15.6182 40.6134 16.2751 41.1896 16.8077C42.4185 17.375 43.4509 17.131 44.2867 16.0757C44.3918 15.5595 44.1853 15.3906 43.6672 15.5689L43.2168 16.0193C42.2365 16.5511 41.5421 16.3071 41.1333 15.2873C40.874 14.3769 41.1181 13.6448 41.8653 13.0912C43.0531 12.3973 44.2168 12.4348 45.3566 13.2038C46.4208 14.0687 46.815 15.1763 46.5391 16.5261C45.9313 18.0537 44.8239 18.9922 43.2168 19.3417C43.5527 19.4143 43.8719 19.4519 44.174 19.4543C44.3662 19.3633 44.46 19.2132 44.4556 19.0038C44.6469 18.9858 44.8347 19.0045 45.0187 19.0601C44.8577 19.2725 44.6699 19.4603 44.4556 19.6232C44.5182 19.6664 44.5557 19.7227 44.5682 19.7922C45.1072 19.4605 45.6327 19.1038 46.1449 18.7223C46.4498 18.3032 46.844 18.0216 47.3274 17.8776C48.1758 18.0117 48.5513 18.4997 48.4537 19.3417C47.8967 19.7137 47.2773 19.9014 46.5954 19.9048C46.5569 19.9992 46.4819 20.0368 46.3702 20.0174C46.0483 20.0924 45.7104 20.1675 45.3566 20.2426C45.5653 20.3845 45.7717 20.3845 45.976 20.2426C46.0605 20.3131 46.1544 20.3695 46.2575 20.4116L45.3566 20.5242L46.1449 20.6368L45.8071 20.7494C46.3441 20.8518 46.3628 20.9457 45.8634 21.031C45.3875 20.882 44.8994 20.7694 44.3993 20.6931C44.2417 20.775 44.0728 20.8313 43.8925 20.8621C44.4309 20.9408 44.4496 20.9971 43.9488 21.031C43.116 20.8347 42.2713 20.7596 41.4148 20.8058C43.4332 21.1236 45.4604 21.4801 47.4964 21.8757C48.3589 22.1012 48.7156 21.7822 48.5663 20.9184C48.4075 20.7734 48.2385 20.642 48.0595 20.5242C49.6516 19.719 49.8017 18.7054 48.51 17.4834C48.927 17.101 49.0583 16.6317 48.9041 16.0757C48.5502 15.6266 48.0809 15.4014 47.4964 15.3999C46.9533 12.8387 45.3766 11.6374 42.7663 11.796C42.8513 10.8485 42.4196 10.323 41.4711 10.2193C41.1354 10.237 40.835 10.3497 40.5702 10.5572C39.4288 7.85629 37.4205 6.76761 34.5449 7.29118C34.528 6.09145 33.9274 5.54712 32.743 5.65817C32.5324 5.81203 32.3071 5.94341 32.0672 6.05234C31.5158 4.91199 30.9339 3.78578 30.3216 2.6737C29.9067 2.05346 29.4374 1.49035 28.9138 0.984375ZM28.6318 1.8854C24.3734 7.2374 24.3546 12.6057 28.5755 17.9903C28.7662 17.8805 28.9351 17.7303 29.0823 17.5398C32.9023 12.1993 32.7522 6.98115 28.6318 1.8854ZM24.4075 8.0794C24.5399 8.05473 24.6525 8.09227 24.7454 8.19202C24.6837 8.73016 24.5336 8.7677 24.2949 8.30464C24.3358 8.22766 24.3733 8.15259 24.4075 8.0794ZM32.516 8.07955C33.0538 8.11204 33.1101 8.29975 32.6849 8.64266C32.542 8.48446 32.4857 8.29675 32.516 8.07955ZM15.5113 11.008C16.0978 10.9933 16.2856 11.256 16.0744 11.7964C15.3186 11.9414 15.131 11.6786 15.5113 11.008ZM23.942 6.50341C24.5285 6.48865 24.7162 6.75144 24.5051 7.29176C23.7493 7.43683 23.5617 7.17405 23.942 6.50341ZM41.3015 11.0078C41.9759 11.0263 42.126 11.3079 41.752 11.8525C41.0427 11.9083 40.8925 11.6267 41.3015 11.0078ZM32.9841 6.39029C33.6585 6.40876 33.8086 6.69031 33.4346 7.23495C32.7253 7.29074 32.5751 7.00919 32.9841 6.39029ZM9.20227 16.3009C9.58074 16.3801 9.61828 16.5303 9.31489 16.7514C9.07361 16.6459 9.03607 16.4958 9.20227 16.3009ZM47.7197 16.4135C47.8862 16.384 48.0363 16.4215 48.1702 16.5261C47.9491 16.8295 47.7989 16.792 47.7197 16.4135Z" fill="white"/>
<path fill-rule="evenodd" clip-rule="evenodd" d="M22.6028 17.5398C23.9369 17.8622 25.2883 18.0874 26.6571 18.2155C27.3204 18.4052 27.9586 18.33 28.5717 17.9903C28.8021 18.1552 29.0087 18.1177 29.1911 17.8776C29.8503 18.4671 30.5448 18.5422 31.2746 18.1029C31.8653 17.9871 32.466 17.912 33.0766 17.8776C33.5645 17.8776 34.0526 17.8776 34.5406 17.8776C34.5406 18.0278 34.5406 18.178 34.5406 18.3281C34.2566 18.3707 33.9939 18.4645 33.7523 18.6097C35.9729 18.8292 38.1879 19.0919 40.3969 19.398C41.3409 19.4851 42.2794 19.4663 43.2125 19.3417C43.5484 19.4144 43.8676 19.452 44.1698 19.4543C44.3619 19.3633 44.4557 19.2132 44.4513 19.0038C44.6427 18.9858 44.8304 19.0045 45.0144 19.0602C44.8534 19.2726 44.6656 19.4603 44.4513 19.6233C44.5139 19.6664 44.5514 19.7227 44.5639 19.7922C44.4751 19.8241 44.4 19.8804 44.3387 19.9611C45.0134 20.0173 45.6891 20.0361 46.3659 20.0174C46.044 20.0924 45.7061 20.1676 45.3523 20.2427C45.561 20.3846 45.7674 20.3846 45.9717 20.2427C46.0562 20.3132 46.1501 20.3695 46.2533 20.4116C45.9529 20.4491 45.6527 20.4867 45.3523 20.5242C45.615 20.5617 45.8779 20.5994 46.1406 20.6369C46.028 20.6744 45.9154 20.712 45.8028 20.7495C46.3399 20.8519 46.3586 20.9458 45.8591 21.031C45.3833 20.882 44.8952 20.7694 44.395 20.6932C44.2374 20.775 44.0685 20.8314 43.8882 20.8621C44.4267 20.9408 44.4454 20.9971 43.9445 21.031C43.1117 20.8347 42.267 20.7596 41.4105 20.8058C37.9239 20.4216 34.4326 20.065 30.9367 19.7359C29.4727 19.6608 28.0086 19.6608 26.5445 19.7359C20.9943 20.1435 15.4758 20.8004 9.98915 21.7068C9.76391 21.7068 9.53867 21.7068 9.31342 21.7068C9.31342 21.1812 9.31342 20.6557 9.31342 20.1301C9.06442 20.0775 8.83918 19.9648 8.6377 19.7922C8.81173 19.685 8.99944 19.6475 9.2008 19.6796C10.4276 20.0446 11.6664 20.1009 12.9173 19.8485C12.8141 19.8172 12.7391 19.7609 12.6921 19.6796C12.6626 19.5131 12.7001 19.363 12.8047 19.2291C13.2985 19.3619 13.7866 19.5121 14.2688 19.6796C15.4311 19.6058 16.5949 19.587 17.76 19.6233C17.5777 19.5967 17.4651 19.5029 17.4222 19.3417C19.2429 19.0862 21.0824 18.8609 22.9406 18.666C23.1284 18.666 23.316 18.666 23.5037 18.666C23.4915 18.1727 23.2662 18.0225 22.828 18.2155C22.828 18.1029 22.828 17.9903 22.828 17.8776C22.4589 17.8456 22.1024 17.8832 21.7581 17.9903C21.6109 17.847 21.442 17.7344 21.2513 17.6524C21.3732 17.6243 21.5233 17.6057 21.7018 17.5961C21.447 17.5171 21.3344 17.3857 21.3639 17.2019C21.7307 17.4698 22.1437 17.5825 22.6028 17.5398Z" fill="white"/>
<path fill-rule="evenodd" clip-rule="evenodd" d="M54.3971 38.3505V36.8864C54.2822 33.835 54.0382 30.7943 53.6651 27.7642C53.2425 27.4118 52.7732 27.1303 52.2573 26.9196C49.1713 25.7634 45.9803 25.1252 42.6843 25.005C37.2407 24.6043 32.5292 26.2373 28.55 29.904C28.3739 29.2867 28.2613 28.6485 28.2122 27.9894C28.0858 27.7502 27.9169 27.5438 27.7054 27.37C24.6325 25.9692 21.404 25.2184 18.0197 25.1176C14.3198 24.6647 10.791 25.2278 7.43315 26.8069C4.49266 28.1332 2.33404 30.2541 0.957299 33.17C-0.592961 37.2445 -0.25509 41.1487 1.97091 44.8825C3.3499 46.637 4.94541 48.1573 6.75741 49.4436C9.63488 51.3899 12.6757 53.0792 15.8799 54.5115C17.5575 55.4371 19.0405 56.6196 20.3285 58.059C22.8464 61.0404 23.2969 64.3064 21.68 67.857C19.6392 70.8663 16.8048 72.0864 13.1769 71.5171C9.52348 70.451 6.65158 68.33 4.56125 65.1541C3.54666 63.088 2.6269 60.9857 1.80197 58.8474C1.14186 58.6213 0.559972 58.734 0.056312 59.1852C-0.0187707 59.9361 -0.0187707 60.6868 0.056312 61.4376C0.477761 65.0429 0.890713 68.6468 1.29517 72.2492L1.80197 72.756C5.91601 74.5149 10.2145 75.4346 14.6974 75.5151C19.0723 75.4141 23.0705 74.1753 26.6917 71.7987C26.7559 72.2956 27.0187 72.6521 27.4801 72.8686C29.1233 73.5665 30.8126 74.1296 32.5482 74.5579C38.0107 76.0588 43.379 75.7959 48.6533 73.7695C54.9864 70.6598 57.8207 65.573 57.1564 58.5095C56.822 56.0021 55.8459 53.7873 54.2282 51.8649C51.9569 49.6301 49.4605 47.6968 46.7387 46.065C44.5852 45.0821 42.4454 44.0686 40.3192 43.0242C38.5142 42.0078 37.0313 40.6376 35.8706 38.9136C33.8564 35.1899 34.5133 32.0553 37.8415 29.5098C40.3522 28.2401 42.8674 28.2401 45.3872 29.5098C47.4289 30.7257 49.0994 32.3212 50.399 34.2962C51.1064 35.6544 51.8009 37.0058 52.4825 38.3505H54.3971ZM22.1858 31.0866C20.0339 29.1743 17.5187 28.3297 14.64 28.5527C14.1834 28.7713 13.6953 28.9402 13.1759 29.0595C9.59232 31.0662 8.48486 34.0132 9.85353 37.9001C10.9872 40.0098 12.5827 41.6805 14.64 42.9117C16.9641 44.0361 19.2916 45.1623 21.6227 46.2903C24.4868 47.959 27.0208 50.0425 29.2248 52.5408C30.4931 54.1663 31.2815 56.0058 31.5898 58.0591C32.002 60.7895 31.758 63.4549 30.8578 66.0552C32.2845 68.085 34.1241 69.6429 36.3763 70.7289C39.4734 72.1787 42.4391 71.9534 45.2736 70.0532C48.0094 67.5378 48.7791 64.5159 47.5824 60.9873C46.5955 58.7985 45.1127 57.0154 43.1337 55.6378C40.985 54.2628 38.7325 53.0616 36.3763 52.034C33.5133 50.448 30.9043 48.5147 28.549 46.234C25.9428 43.131 24.9667 39.5647 25.6208 35.5351C24.7347 33.8591 23.5898 32.3763 22.1858 31.0866Z" fill="url(#paint0_linear_707_1946)"/>
<defs>
<linearGradient id="paint0_linear_707_1946" x1="5.00946" y1="30.432" x2="43.6526" y2="76.9482" gradientUnits="userSpaceOnUse">
<stop stop-color="white"/>
<stop offset="0.196521" stop-color="#6A6A6A"/>
<stop offset="0.341403" stop-color="#A7A7A7"/>
<stop offset="0.470401" stop-color="white"/>
<stop offset="0.628918" stop-color="white"/>
<stop offset="0.739683" stop-color="#828282"/>
<stop offset="0.789638" stop-color="#8E8E8E"/>
<stop offset="1" stop-color="white"/>
</linearGradient>
</defs>
</svg>
