<svg width="562" height="536" viewBox="0 0 562 536" fill="none" xmlns="http://www.w3.org/2000/svg">
<path opacity="0.34" d="M1.53941 315.79C48.8548 315.272 96.1759 315.058 143.496 315.145C143.286 314.047 143.307 311.58 143.384 309.227C131.474 308.665 119.566 308.092 107.66 307.491C107.065 307.461 107.662 283.879 107.66 283.879C137.571 283.623 167.484 283.585 197.395 283.755C197.363 281.864 197.363 279.445 197.382 276.951C196.396 276.93 195.411 276.909 194.426 276.888C168.997 276.342 143.569 275.797 118.141 275.251C118.069 275.25 117.756 259.929 117.925 253.973C105.059 252.784 92.2135 251.467 79.3953 250.003C78.5728 249.909 79.1552 238.127 79.3953 231.245C79.3953 229.626 79.3953 228.008 79.3953 226.39C111.317 226.629 143.239 226.868 175.161 227.107C162.219 226.174 149.279 225.239 136.337 224.305C135.778 224.265 136.173 200.701 136.337 200.693C186.466 198.327 236.596 195.963 286.726 193.604C241.398 189.582 196.072 185.56 150.744 181.538C121.428 178.937 92.1113 176.335 62.7948 173.733C62.1346 173.675 62.6894 150.126 62.7948 150.121C151.416 145.545 240.037 140.97 328.658 136.394C353.721 135.1 378.782 133.806 403.844 132.512C403.367 132.536 404.786 156.076 403.844 156.125C346.235 159.099 288.624 162.073 231.015 165.048C278.321 169.245 325.627 173.443 372.934 177.641C402.25 180.243 431.567 182.844 460.883 185.446C461.57 185.507 460.951 209.056 460.883 209.059C418.688 211.023 376.494 212.997 334.3 214.978C373.292 217.792 412.285 220.606 451.277 223.42C480.94 225.56 510.602 227.701 540.265 229.841C540.923 229.889 540.414 243.97 540.265 250.36C540.265 251.391 540.265 252.422 540.265 253.454C499.224 253.147 458.184 252.84 417.144 252.533C417.142 254.393 417.135 256.293 417.121 258.053C433.186 258.398 449.252 258.743 465.317 259.087C465.619 259.094 465.538 269.046 465.438 276.027C485.557 276.295 505.678 276.425 525.8 276.408C525.798 276.408 526.356 299.997 525.8 300.021C514.41 300.496 503.019 300.92 491.624 301.304C491.559 305.393 491.43 309.957 491.369 312.889C491.369 313.909 491.369 314.93 491.369 315.951C487.505 315.879 483.643 315.792 479.778 315.714C479.761 316.567 479.746 317.321 479.735 317.945C479.735 318.565 479.735 319.184 479.735 319.803C465.809 319.584 451.885 319.331 437.96 319.057C437.958 319.251 437.955 319.445 437.953 319.636C460.228 320.274 482.5 320.971 504.768 321.742C505.289 321.76 504.884 336.016 504.768 342.364C504.768 343.361 504.768 344.358 504.768 345.355C500.51 345.232 496.253 345.101 491.996 344.975C491.932 349.333 491.825 353.877 491.789 356.213C491.789 356.746 491.789 357.28 491.789 357.813C418.299 356.573 344.771 356.182 271.273 357.151C292.288 359.289 313.317 361.354 334.361 363.329C356.324 365.391 378.302 367.362 400.293 369.249C401.059 369.314 400.563 379.183 400.293 386.14C400.293 388.381 400.293 390.621 400.293 392.861C344.081 390.146 287.808 388.186 231.505 386.982C265.926 391.496 300.352 395.983 334.793 400.411C361.863 403.891 388.94 407.344 416.021 410.771C416.167 410.79 416.246 411.553 416.285 412.68C431.688 413.319 447.091 413.963 462.493 414.6C494.842 415.94 527.19 417.276 559.54 418.609C559.671 418.615 560.141 442.171 559.54 442.222C504.854 446.793 449.944 449.657 394.982 451.438C339.723 453.228 284.413 453.94 229.109 454.264C197.98 454.446 166.85 454.505 135.721 454.565C135.518 454.565 135.457 430.953 135.721 430.952C181.271 430.866 226.825 430.773 272.371 430.3C252.934 429.488 233.497 428.682 214.061 427.867C181.714 426.513 149.366 425.155 117.019 423.794C116.502 423.772 116.958 400.182 117.019 400.181C128.483 400.062 139.947 400.01 151.412 400.011C143.116 398.906 134.817 397.813 126.523 396.704C99.4837 393.087 72.4513 389.443 45.4246 385.772C44.5396 385.652 45.1812 373.313 45.4246 366.523C45.4246 365.069 45.4246 363.614 45.4246 362.16C64.8032 361.999 84.1834 361.932 103.563 361.949C102.907 361.833 103.236 350.109 103.446 343.229C69.4777 341.953 35.5085 340.678 1.54022 339.403C1.06166 339.385 1.44613 315.791 1.53941 315.79Z" fill="#C29E83"/>
<path opacity="0.59" d="M145.122 193.152C144.976 193.133 144.897 192.37 144.858 191.243C129.455 190.604 114.052 189.96 98.6499 189.322C66.3014 187.983 33.9529 186.647 1.60355 185.314C1.47214 185.308 1.0025 161.751 1.60355 161.701C56.2897 157.13 111.199 154.266 166.162 152.485C221.42 150.695 276.729 149.984 332.034 149.659C363.163 149.477 394.293 149.417 425.422 149.358C425.625 149.358 425.686 172.97 425.422 172.971C379.871 173.057 334.318 173.15 288.772 173.623C308.209 174.435 327.646 175.241 347.082 176.056C379.43 177.41 411.777 178.769 444.124 180.129C444.641 180.151 444.185 203.741 444.124 203.742C432.66 203.861 421.195 203.913 409.73 203.912C418.027 205.017 426.325 206.11 434.62 207.219C461.659 210.837 488.691 214.481 515.718 218.151C516.602 218.271 515.961 230.605 515.718 237.396C515.718 238.852 515.718 240.308 515.718 241.763C496.34 241.924 476.961 241.99 457.581 241.973C458.234 242.118 457.906 253.821 457.696 260.694C491.665 261.969 525.634 263.245 559.602 264.52C560.08 264.538 559.695 288.132 559.602 288.133C512.287 288.651 464.966 288.865 417.645 288.778C417.855 289.875 417.834 292.339 417.757 294.691C429.667 295.253 441.575 295.831 453.482 296.432C454.076 296.462 453.479 320.045 453.482 320.045C423.572 320.301 393.658 320.339 363.747 320.168C363.779 322.06 363.779 324.479 363.761 326.973C364.746 326.994 365.731 327.015 366.716 327.036C392.145 327.581 417.573 328.127 443.001 328.672C443.073 328.674 443.386 343.992 443.217 349.95C456.083 351.14 468.929 352.457 481.746 353.921C482.569 354.015 481.987 365.79 481.746 372.674C481.746 374.294 481.746 375.914 481.746 377.534C449.824 377.294 417.903 377.056 385.981 376.817C398.922 377.75 411.864 378.684 424.805 379.618C425.363 379.659 424.969 403.223 424.805 403.231C374.676 405.597 324.546 407.961 274.417 410.319C319.744 414.342 365.071 418.363 410.398 422.386C439.715 424.987 469.031 427.588 498.348 430.19C499.008 430.249 498.453 453.797 498.348 453.803C409.726 458.379 321.105 462.954 232.484 467.53C207.422 468.823 182.361 470.118 157.298 471.412C157.775 471.387 156.357 447.848 157.298 447.799C214.908 444.825 272.518 441.85 330.128 438.876C282.822 434.678 235.516 430.481 188.21 426.282C158.893 423.681 129.577 421.08 100.26 418.478C99.573 418.417 100.192 394.868 100.26 394.865C142.456 392.901 184.65 390.926 226.843 388.945C187.851 386.132 148.859 383.318 109.866 380.504C80.2033 378.363 50.5412 376.223 20.8783 374.082C20.2197 374.034 20.7283 359.961 20.8783 353.568C20.8783 352.536 20.8783 351.503 20.8783 350.47C61.9189 350.777 102.959 351.084 143.999 351.391C144.001 349.532 144.008 347.63 144.022 345.871C127.957 345.526 111.892 345.181 95.8264 344.837C95.5238 344.831 95.6049 334.878 95.7047 327.898C75.5863 327.63 55.4655 327.499 35.3439 327.516C35.3464 327.516 34.7883 303.927 35.3439 303.904C46.733 303.428 58.1252 303.005 69.5191 302.621C69.584 298.536 69.713 293.971 69.7738 291.04C69.7738 290.018 69.7738 288.996 69.7738 287.975C73.638 288.046 77.5014 288.134 81.3648 288.212C81.3826 287.366 81.3972 286.614 81.4078 285.992C81.4078 285.369 81.4078 284.745 81.4078 284.122C95.334 284.341 109.259 284.595 123.183 284.867C123.186 284.673 123.188 284.48 123.191 284.288C100.915 283.651 78.6435 282.953 56.3756 282.183C55.8541 282.165 56.2596 267.912 56.3756 261.562C56.3756 260.564 56.3756 259.567 56.3756 258.57C60.6332 258.692 64.89 258.824 69.1476 258.949C69.2109 254.594 69.318 250.051 69.3545 247.713C69.3545 247.179 69.3545 246.646 69.3545 246.112C142.844 247.352 216.373 247.741 289.87 246.774C268.855 244.636 247.826 242.57 226.783 240.595C204.82 238.533 182.842 236.562 160.851 234.676C160.085 234.61 160.581 224.743 160.851 217.786C160.851 215.545 160.851 213.304 160.851 211.063C217.063 213.779 273.336 215.738 329.639 216.943C295.218 212.428 260.792 207.942 226.351 203.514C199.28 200.033 172.204 196.58 145.122 193.152Z" fill="#DCC6BC"/>
<path d="M309.572 260.931C341.61 307.149 322.702 360.721 418.815 383.305C514.929 405.889 510.201 418.494 459.781 415.867C409.361 413.241 533.835 421.119 553.793 426.897C573.751 432.674 546.44 416.918 549.066 442.128C551.692 467.338 574.801 508.83 525.431 487.296C476.062 465.762 479.738 373.326 420.914 443.179C362.091 513.031 354.18 531.414 304.039 523.011C253.899 514.607 334.255 361.772 241.556 412.717C148.856 463.662 237.617 541.393 154.634 490.448C71.6507 439.503 56.945 527.738 58.521 459.461C60.097 391.183 45.3905 407.465 31.7352 398.011C18.0799 388.558 44.8657 323.957 88.4581 371.751C132.05 419.545 211.882 339.631 227.113 297.918C242.344 256.205 261.514 243.186 261.514 243.186C261.514 243.186 274.998 260.408 288.608 260.408C302.218 260.408 309.572 260.931 309.572 260.931Z" fill="#C29E83"/>
<path d="M270.398 249.549C237.716 271.101 228.67 312.178 220.849 347.926C218.639 358.029 216.633 368.171 214.624 378.315C212.855 387.25 210.54 395.899 206.111 403.921C197.939 418.725 184.891 430.406 170.558 439.103C151.784 450.494 130.736 457.28 110.242 464.816C108.851 465.328 111.474 476.531 110.242 476.983C143.937 464.594 181.879 452.933 202.863 421.436C213.519 405.441 215.332 386.102 219.21 367.726C223.347 348.124 227.45 328.16 234.727 309.435C242.04 290.617 253.294 272.995 270.398 261.716C270.947 261.354 270.459 256.368 270.459 255.633C270.459 254.914 269.865 249.901 270.398 249.549Z" fill="#DCC6BC"/>
<path d="M49.1371 386.923C78.3052 406.319 115.703 417.618 149.618 403.797C165.567 397.298 179.646 385.659 192.799 374.762C206.005 363.821 218.173 351.604 227.44 337.093C238.352 320.006 245.453 300.878 252.473 281.964C253.362 279.569 251.599 276.207 252.473 273.852C246.28 290.54 240.04 307.34 231.161 322.826C222.423 338.068 210.84 351.062 197.623 362.559C184.761 373.747 170.773 385.259 155.505 392.99C139.846 400.918 121.871 403.204 104.558 400.984C84.5346 398.416 65.826 389.908 49.1371 378.811C50.3416 379.613 47.8482 386.067 49.1371 386.923Z" fill="#DCC6BC"/>
<path d="M287.512 269.849C315.285 285.632 331.653 315.028 349.439 340.404C359.995 355.467 370.81 370.349 381.875 385.043C391.696 398.086 401.214 412.374 413.59 423.176C427.842 435.615 446.054 439.184 464.514 438.925C464.611 438.924 464.538 430.814 464.514 430.814C448.326 431.041 431.679 428.532 418.279 418.816C405.023 409.205 395.459 394.845 385.678 381.962C374.556 367.313 363.684 352.471 353.068 337.451C343.563 324.001 334.597 310.137 324.725 296.952C314.404 283.166 302.622 270.325 287.512 261.739C288.628 262.372 286.305 269.163 287.512 269.849Z" fill="#DCC6BC"/>
<path d="M269.1 267.637C284.137 290.566 299.292 313.696 309.824 339.124C320.73 365.457 325.641 394.047 325.977 422.484C326.189 440.379 324.471 458.335 322.312 476.081C321.987 478.751 322.635 481.536 322.312 484.192C325.819 455.377 327.451 426.062 325.139 397.077C322.558 364.711 313.232 334.398 297.725 305.91C289.032 289.942 279.064 274.719 269.1 259.527C270.321 261.389 267.842 265.719 269.1 267.637Z" fill="#DCC6BC"/>
<path d="M60.6551 451.571C69.6384 464.066 83.9693 472.171 99.3961 472.992C107.631 473.43 115.172 472.796 122.479 477.286C128.162 480.778 132.727 485.762 137.634 490.206C142.835 494.917 148.496 499.031 155.491 500.508C163.445 502.187 171.793 500.661 179.217 497.598C195.077 491.056 206.283 477.404 219.282 466.783C225.602 461.621 232.533 456.964 240.258 454.192C247.408 451.627 257.783 449.425 263.911 455.267C269.836 460.916 272.943 470.782 275.169 478.427C277.628 486.873 278.157 495.814 281.063 504.13C283.458 510.982 288.148 517.681 295.276 520.165C303.273 522.953 310.031 518.182 315.795 513.113C329.559 501.008 342.954 488.492 356.93 476.627C386.722 451.336 419.812 428.393 458.383 419.264C459.044 419.108 457.836 411.283 458.383 411.153C424.343 419.209 394.33 438.12 367.382 459.857C353.086 471.387 339.489 483.742 325.838 496.018C319.815 501.435 313.468 508.909 305.739 511.87C298.647 514.587 291.499 511.451 286.689 506.018C281.124 499.733 279.512 491.273 278.034 483.27C276.361 474.207 274.107 465.465 270.158 457.095C268.602 453.796 266.928 450.228 264.352 447.579C261.055 444.19 256.645 443.376 252.071 443.605C243.933 444.011 236.171 447.225 229.304 451.452C214.744 460.414 204.014 474.182 189.87 483.694C176.949 492.383 159.562 497.145 145.483 488.27C139.162 484.286 134.214 478.567 128.582 473.734C121.627 467.766 114.713 465.094 105.51 464.972C96.6529 464.855 88.4289 463.859 80.3387 459.996C72.4603 456.233 65.7441 450.537 60.6551 443.458C61.9156 445.213 59.3533 449.76 60.6551 451.571Z" fill="#DCC6BC"/>
<path d="M338.137 535.852C407.295 540.056 386.777 452.869 456.105 474.403C525.433 495.937 541.883 501.437 541.883 501.437C541.883 501.437 518.605 489.634 496.02 456.021C473.436 422.408 468.71 394.571 426.693 435.012C384.676 475.454 269.014 531.651 338.137 535.852Z" fill="#715442"/>
<path d="M254.903 285.939C250.086 301.467 241.557 309.131 241.557 309.131" stroke="#050505" stroke-miterlimit="10"/>
<path d="M45.5398 404.783C62.8598 412.694 82.7769 412.706 101.326 410.301C116.916 408.279 132.296 404.402 147.16 399.312C150.199 398.272 153.239 397.201 156.211 395.979C156.711 395.773 155.762 392.108 156.211 391.924C147.834 395.366 139.078 398.037 130.342 400.381C112.788 405.092 94.445 408.279 76.2141 407.496C65.6744 407.043 55.1776 405.131 45.5398 400.729C46.0256 400.95 45.0036 404.538 45.5398 404.783Z" fill="#260113"/>
<path d="M265.279 257.12C244.687 273.025 238.574 297.514 233.874 321.851C229.163 346.249 223.988 371.513 204.834 389.039C190.402 402.244 171.365 408.94 152.535 412.933C152.232 412.997 152.779 416.937 152.535 416.988C169.567 413.377 186.668 407.609 200.524 396.744C210.805 388.682 218.444 378.034 223.443 366.01C232.891 343.282 233.289 318.094 241.53 295.009C246.293 281.665 253.997 269.891 265.279 261.177C265.952 260.657 264.645 257.61 265.279 257.12Z" fill="#260113"/>
<path d="M43.8169 358.164C51.1649 372.083 61.8174 384.83 77.2207 389.89C96.9456 396.368 118.471 389.328 136.335 380.642C151.368 373.331 165.394 364.011 178.777 354.039C192.388 343.898 205.724 333.062 217.307 320.61C227.238 309.933 235.955 297.836 237.925 283.082C238.374 279.726 238.42 275.913 240.642 273.148C243.879 269.122 250.186 267.89 254.903 266.778C255.234 266.7 254.631 262.786 254.903 262.722C250.394 263.785 244.79 264.927 241.35 268.32C239.118 270.52 238.63 273.496 238.242 276.476C236.562 289.393 231.342 299.867 223.057 309.989C213.77 321.336 202.635 331.149 191.249 340.323C177.008 351.797 162.039 362.575 146.053 371.499C127.343 381.943 104.569 391.719 82.6682 387.271C64.6101 383.604 52.1017 369.8 43.8169 354.107C44.3677 355.153 43.2524 357.095 43.8169 358.164Z" fill="#260113"/>
<path d="M66.9259 353.788C68.3697 360.2 69.6675 366.673 71.5152 372.985C72.7522 377.211 74.2536 381.631 77.125 385.057C83.5807 392.758 95.4499 391.939 104.466 391.44C104.57 391.434 104.422 387.386 104.466 387.384C95.4621 387.884 83.5678 388.708 77.125 381.001C74.3396 377.67 72.8495 373.411 71.6272 369.308C69.7129 362.88 68.3981 356.271 66.9259 349.732C67.2138 351.011 66.6347 352.495 66.9259 353.788Z" fill="#260113"/>
<path d="M61.4111 461.63C78.8746 478.318 102.618 472.843 119.925 458.992C122.384 457.023 125.81 454.983 127.88 452.616C127.962 452.523 128.366 452.538 128.366 452.538C127.971 453.111 129.295 448.081 128.318 449.874C127.738 450.939 127.63 452.742 127.378 453.927C125.84 461.159 125.979 468.437 123.884 475.575C122.499 480.296 121.447 484.601 121.498 489.536C121.555 495.164 124.121 499.11 128.688 502.379C146.982 515.471 170.455 516.763 190.602 507.697C210.013 498.963 228.425 482.69 238.407 463.731C238.971 462.661 237.857 460.721 238.407 459.676C229.646 476.315 214.4 490.513 198.199 499.765C189.079 504.974 178.962 508.758 168.436 509.614C156.817 510.559 145.719 507.263 135.352 502.196C129.194 499.185 123.346 495.43 121.655 488.465C121.397 487.401 121.244 489.899 121.681 488.268C121.814 487.773 121.844 487.225 121.943 486.721C122.209 485.369 122.582 484.039 122.964 482.716C123.747 480.006 124.627 477.323 125.222 474.562C126.068 470.625 126.009 466.623 126.559 462.645C126.982 459.586 127.952 456.628 128.387 453.587C128.519 452.674 129.04 449.333 128.47 448.77C127.693 448.003 125.887 450.037 125.164 450.633C116.262 457.967 107.173 464.675 95.6787 467.236C82.9757 470.067 70.7934 466.54 61.4103 457.574C62.0705 458.205 60.72 460.97 61.4111 461.63Z" fill="#260113"/>
<path d="M143.607 465.044C144.55 468.574 146.011 472.852 149.803 469.282C152.209 467.016 154.064 464.048 155.929 461.348C159.224 456.579 162.41 451.735 165.674 446.945C172.782 436.515 179.036 426.135 184.163 414.581C185.909 410.646 187.511 406.617 189.509 402.8C190.25 401.385 191.598 398.215 193.524 398.06C195.761 397.88 196.936 401.558 197.545 403.117C199.693 408.611 200.801 414.472 202.351 420.145C203.82 425.519 205.431 430.943 207.821 435.991C209.103 438.699 210.719 441.838 213.307 443.533C217.895 446.539 222.484 442.115 225.411 438.829C229.845 433.85 232.635 429.051 233.633 422.429C235.359 410.983 234.124 399.179 233.498 387.698C233.467 387.133 233.478 386.546 233.414 385.984C233.371 385.602 233.296 384.616 233.396 386.583C233.546 389.552 233.32 387.118 233.42 387.129C233.332 387.12 233.62 386.018 233.74 386.097C234.618 386.666 235.037 387.606 235.525 388.644C239.688 397.502 242.566 407.124 245.755 416.353C253.903 439.942 259.825 464.381 268.764 487.684C272.228 496.714 278.846 513.808 291.451 507.186C298.285 503.596 303.502 496.782 307.723 490.519C313.108 482.527 317.398 473.81 321.176 464.962C327.01 451.297 331.72 437.089 335.45 422.708C335.671 421.854 335.892 420.999 336.097 420.14C336.405 418.855 335.793 417.355 336.097 416.084C333.558 426.702 330.205 437.183 326.477 447.436C320.232 464.611 312.637 483.17 299.739 496.511C296.017 500.362 290.626 505.344 284.776 504.681C279.563 504.09 276.171 499.059 273.829 494.869C269.56 487.231 266.848 478.688 264.167 470.397C260.321 458.501 256.827 446.493 253.074 434.567C248.932 421.399 244.495 408.326 239.753 395.361C239.403 394.404 235.445 381.629 233.809 382.018C231.761 382.504 234.287 405.376 234.324 407.194C234.452 413.692 234.161 421.377 231.039 427.266C228.63 431.811 223.681 438.47 218.533 440.168C212.83 442.049 209.372 435.381 207.462 431.152C202.712 420.634 201.696 408.923 197.261 398.348C196.638 396.862 195.507 393.732 193.395 394.023C191.387 394.3 189.957 397.858 189.203 399.348C184.643 408.368 181.179 417.86 176.219 426.698C170.19 437.44 162.688 447.543 155.672 457.666C154.347 459.579 149.472 468.509 146.076 466.438C144.53 465.495 144.023 462.542 143.607 460.988C143.941 462.242 143.267 463.775 143.607 465.044Z" fill="#260113"/>
<path d="M229.74 307.103C219.946 328.375 211.752 350.774 199.771 370.959C190.559 386.479 178.121 398.778 161.073 405.313C148.726 410.047 135.456 411.938 122.336 412.932C122.204 412.942 122.407 416.982 122.336 416.988C143.035 415.42 164.792 411.423 181.186 397.765C195.721 385.655 204.215 367.964 211.91 351.089C217.958 337.825 223.644 324.401 229.741 311.158C230.259 310.032 229.232 308.206 229.74 307.103Z" fill="#260113"/>
<path d="M292.243 272.292C316.843 299.084 340.165 326.949 364.196 354.236C372.003 363.1 379.967 371.861 388.588 379.945C399.232 389.926 411.375 398.062 422.171 407.876C430.202 415.176 438.493 423.121 444.55 432.219C443.936 431.297 445.183 429.114 444.55 428.163C430.979 407.781 409.564 394.807 391.704 378.752C372.164 361.187 355.636 340.317 338.542 320.456C323.365 302.822 307.979 285.374 292.243 268.237C292.902 268.956 291.556 271.545 292.243 272.292Z" fill="#260113"/>
<path d="M286.369 273.343C297.357 309.144 310.309 344.268 323.857 379.168C332.439 401.274 342.542 423.494 348.022 446.644C350.033 455.142 351.813 463.721 352.981 472.38C353.324 474.922 353.618 477.474 353.798 480.034C353.909 481.615 353.722 485.713 353.947 480.494C353.894 481.711 353.999 483.447 353.957 484.404C354.213 478.462 353.594 472.496 352.742 466.626C350.79 453.171 347.794 439.827 343.443 426.943C333.308 396.925 320.729 367.73 309.744 338.018C301.35 315.316 293.47 292.427 286.368 269.287C286.745 270.514 285.987 272.099 286.369 273.343Z" fill="#260113"/>
<path d="M302.044 268.879C320.573 287.085 336.957 306.967 351.916 328.174C360.921 340.941 369.571 354.967 382.275 364.445C396.458 375.026 414.216 378.548 431.557 377.076C436.709 376.639 440.686 377.014 443.424 381.901C445.111 384.912 446.314 388.44 446.984 391.821C447.111 392.465 447.173 393.115 447.285 393.76C447.341 394.077 447.275 394.871 447.381 395.034C447.294 394.899 447.669 391.99 447.342 393.128C447.059 394.115 447.075 395.206 446.779 396.212C446.101 398.524 444.31 400.399 443.683 402.659C443.106 404.74 442.916 407.656 444.94 408.784C446.436 409.619 448.522 409.809 450.173 410.117C453.696 410.772 457.249 411.27 460.794 411.787C474.731 413.817 488.672 415.809 502.596 417.927C513.748 419.624 524.914 421.324 535.986 423.489C542.127 424.689 548.552 425.843 554.346 428.3C555.817 428.923 557.44 429.648 558.57 430.817C558.944 431.204 559.171 431.692 559.516 432.079C561.018 433.771 557.505 433.169 559.811 430.017C558.68 431.562 558.843 433.055 556.721 434.122C553.919 435.531 550.305 435.042 547.303 434.813C544.854 434.626 541.117 433.84 538.892 435.283C536.942 436.55 537.332 439.198 537.376 441.225C537.51 447.484 541.591 453.666 544.144 459.246C547.123 465.759 550.263 472.585 551.342 479.727C551.473 480.597 551.337 482.724 551.604 480.205C551.527 480.932 551.472 481.64 551.305 482.354C551.027 483.544 550.56 484.689 549.816 485.666C548.052 487.985 545.202 488.879 542.407 489.154C537.657 489.623 532.798 488.522 528.233 487.337C528.534 487.414 527.875 491.299 528.233 491.392C534.361 492.983 545.632 495.973 550.075 489.358C552.583 485.623 551.966 479.293 551.245 475.075C550.001 467.801 546.767 460.878 543.702 454.226C542.225 451.022 540.674 447.851 539.27 444.615C539.012 444.021 536.981 439.706 537.492 439.368C537.495 439.993 537.498 440.617 537.501 441.241C537.544 441.101 537.585 440.96 537.627 440.819C537.76 440.783 537.834 440.197 538.012 440.108C538.592 439.816 538.983 439.256 539.661 438.998C545.246 436.874 553.087 441.791 558.032 437.314C560.155 435.391 560.522 431.242 559.745 428.638C558.848 425.629 554.762 424.319 552.149 423.41C545.267 421.015 537.945 419.754 530.796 418.458C505.489 413.872 479.945 410.784 454.543 406.794C451.939 406.385 449.277 406.029 446.732 405.321C446.057 405.133 444.226 403.864 443.743 403.852C443.705 403.851 443.66 403.645 443.643 403.648C443.636 403.631 443.63 403.613 443.623 403.596C443.457 402.906 443.446 403.471 443.593 405.289C443.592 405.889 443.592 406.488 443.591 407.089C443.598 407.048 443.605 407.008 443.613 406.967C443.656 406.955 443.639 406.748 443.683 406.714C443.903 406.544 444.157 405.733 444.296 405.466C444.903 404.289 445.645 403.207 446.163 401.981C447.649 398.463 447.616 394.437 447.37 390.684C447.026 385.459 444.97 377.444 440.456 374.236C436.256 371.251 429.432 373.359 424.726 373.529C414.154 373.912 403.5 371.407 393.86 367.139C379.61 360.83 369.78 349.146 360.859 336.777C347.356 318.055 334.277 299.272 318.728 282.131C313.342 276.193 307.761 270.441 302.043 264.823C302.704 265.472 301.353 268.2 302.044 268.879Z" fill="#260113"/>
<path d="M274.821 275.356C282.646 296.948 289.734 318.817 295.975 340.919C301.638 360.977 306.82 381.314 309.913 401.947C311.199 410.523 312.578 419.517 311.265 428.162C311.063 429.488 311.464 430.902 311.265 432.218C313.517 417.391 310.788 401.525 308.062 386.986C303.385 362.04 296.509 337.485 288.96 313.273C284.565 299.177 279.851 285.182 274.821 271.3C275.25 272.486 274.384 274.152 274.821 275.356Z" fill="#260113"/>
<path d="M293.333 277.107C315.946 327.969 339.191 379.306 354.685 432.899C357.5 442.634 360.007 452.452 362.268 462.33C361.975 461.053 362.563 459.565 362.268 458.275C352.179 414.201 335.852 372.08 318.316 330.501C310.201 311.26 301.817 292.133 293.333 273.051C293.829 274.169 292.826 275.968 293.333 277.107Z" fill="#260113"/>
<path d="M312.481 266.778C332.355 295.24 348.334 326.697 370.265 353.683C378.934 364.351 388.939 374.286 401.135 380.856C413.061 387.28 427.331 390.596 440.776 391.702C448.136 392.307 455.891 391.345 463.035 393.553C473.178 396.688 480.342 405.095 489.731 409.676C500.606 414.982 512.644 417.512 524.38 420.129C534.044 422.284 545.195 423.909 553.608 429.498C556.706 431.557 558.703 434.078 559.735 437.643C560.333 439.708 560.038 436.819 559.761 438.427C559.666 438.978 559.656 439.553 559.615 440.111C559.515 441.483 559.464 442.858 559.429 444.233C559.264 450.824 559.548 457.428 559.026 464.008C557.94 477.702 552.384 489.851 537.741 492.706C526.61 494.876 514.717 492.444 503.946 489.587C487.15 485.13 470.967 478.909 453.9 475.37C432.472 470.927 410.412 470.008 390.113 479.267C367.591 489.54 349.233 507.204 327.49 518.926C317.233 524.454 305.788 529.851 293.984 530.69C288.573 531.075 280.834 530.38 277.73 525.155C274.809 520.238 274.009 513.641 272.993 508.124C271.393 499.434 270.209 490.669 268.968 481.921C267.77 473.47 266.61 464.997 264.978 456.615C264.057 451.885 263.358 444.948 260.116 441.078C257.196 437.593 254.688 442.917 253.626 445.326C251.068 451.13 249.049 457.06 246.048 462.685C242.379 469.562 238.013 476.071 233.057 482.086C214.365 504.772 184.851 522.26 154.88 512.836C143.406 509.228 133.131 503.174 125.754 493.555C122.082 488.766 118.857 481.344 112.368 479.929C108.377 479.058 104.601 480.702 100.67 481.051C95.2821 481.531 89.8183 480.367 84.7966 478.468C72.9907 474.003 62.5864 465.247 55.7965 454.649C52.2656 449.138 49.6846 442.979 48.588 436.511C47.4711 429.919 48.3357 422.99 48.356 416.319C48.3698 411.847 48.4128 407.338 47.9431 402.885C47.6284 399.899 47.205 396.16 44.9736 393.903C43.0537 391.96 40.5465 392.015 38.0133 391.9C34.8743 391.756 33.6097 389.856 32.8846 386.884C32.6996 386.127 32.5853 385.351 32.4952 384.577C32.4531 384.212 32.3119 381.598 32.3484 383.257C32.3841 384.863 32.4093 382.421 32.4182 382.308C32.6615 379.338 33.0776 376.404 33.7241 373.493C34.9083 368.164 36.7009 362.897 39.3046 358.088C44.0416 349.34 52.6428 342.459 62.6375 347.85C66.4871 349.926 69.6772 353.329 73.7613 354.954C78.3652 356.786 80.7507 353.691 84.2962 351.281C89.7388 347.582 93.6371 349.036 95.5359 355.216C97.7244 362.336 97.9134 369.923 100.22 377.029C102.448 383.892 106.742 389.345 114.503 389.171C114.563 389.169 114.504 385.115 114.504 385.115C97.1712 385.505 99.1893 361.55 95.2504 350.269C92.7335 343.062 87.4239 344.659 82.3259 348.702C78.7205 351.561 76.013 352.342 71.8438 349.93C67.7987 347.591 64.4171 344.175 59.9519 342.567C49.0536 338.641 41.2522 349.129 37.4553 357.844C33.6925 366.48 32.1489 375.698 32.3054 385.071C32.3557 388.069 32.3736 391.922 34.3438 394.395C36.198 396.723 38.9445 395.624 41.5093 396.175C50.3684 398.079 48.3706 414.076 48.2432 420.007C47.9845 432.06 47.5027 443.112 53.209 454.221C59.1934 465.871 69.4777 475.563 81.3437 481.069C86.3848 483.408 91.8907 485.058 97.4778 485.199C101.952 485.312 106.203 483.446 110.642 483.749C117.735 484.232 121.052 491.229 124.775 496.306C140.963 518.376 171.565 524.825 196.305 514.519C210.55 508.585 222.842 498.404 232.659 486.616C237.778 480.47 242.283 473.8 246.045 466.74C249.042 461.115 251.065 455.185 253.624 449.382C254.756 446.813 257.337 441.537 260.259 445.332C263.443 449.468 264.144 456.324 265.089 461.259C268.416 478.638 269.946 496.313 273.274 513.692C274.253 518.803 274.99 525.855 278.31 530.123C282.419 535.404 291.26 535.26 297.132 534.394C309.903 532.511 322.028 526.273 333.052 519.859C345.565 512.579 357.045 503.819 368.988 495.683C385.603 484.366 402.964 476.252 423.418 476.029C436.728 475.883 449.987 478.288 462.865 481.468C479.894 485.671 496.249 492.529 513.484 495.846C529.047 498.842 549.304 499.265 556.178 481.893C560.967 469.789 558.638 456.376 559.643 443.739C560.129 437.627 560.791 431.538 555.733 427.059C548.522 420.673 537.13 418.946 528.076 416.902C515.852 414.141 503.325 411.744 491.823 406.6C481.962 402.19 474.578 393.67 464.402 389.959C457.108 387.299 449.155 388.271 441.554 387.707C428.188 386.716 413.972 383.49 402.043 377.284C374.897 363.16 358.052 333.971 342.38 308.942C332.639 293.385 322.988 277.776 312.476 262.721C313.106 263.617 311.837 265.855 312.481 266.778Z" fill="#260113"/>
<path d="M311.41 257.104C303.277 260.172 294.962 262.956 286.249 260.673C278.497 258.641 271.858 253.767 265.511 249.076C266.138 249.539 264.845 252.639 265.511 253.131C271.858 257.824 278.496 262.697 286.249 264.729C294.966 267.014 303.273 264.229 311.41 261.16C311.882 260.981 310.99 257.262 311.41 257.104Z" fill="#260113"/>
<path d="M251.569 175.05C219.531 221.268 238.438 274.839 142.326 297.424C46.213 320.008 50.9394 332.613 101.36 329.986C151.78 327.361 27.3057 335.238 7.34791 341.016C-12.6098 346.794 14.7008 331.037 12.0752 356.247C9.44954 381.457 -13.6602 422.949 35.7097 401.416C85.0797 379.882 81.4029 287.445 140.227 357.299C199.05 427.152 206.961 445.534 257.102 437.13C307.242 428.727 226.886 275.891 319.585 326.837C412.285 377.782 323.524 455.513 406.507 404.568C489.49 353.622 504.196 441.858 502.62 373.58C501.044 305.303 515.75 321.585 529.405 312.131C543.061 302.677 516.275 238.077 472.683 285.871C429.09 333.665 349.259 253.75 334.028 212.037C318.797 170.324 299.627 157.305 299.627 157.305C299.627 157.305 286.142 174.527 272.533 174.527C258.922 174.524 251.569 175.05 251.569 175.05Z" fill="#C29E83"/>
<path d="M290.742 175.835C323.425 197.387 332.471 238.464 340.292 274.212C342.502 284.314 344.508 294.457 346.517 304.6C348.286 313.536 350.601 322.185 355.03 330.207C363.202 345.011 376.25 356.692 390.583 365.389C409.357 376.779 430.404 383.566 450.898 391.102C449.664 390.648 452.293 379.448 450.898 378.935C417.203 366.546 379.261 354.885 358.277 323.388C347.622 307.393 345.809 288.054 341.931 269.679C337.794 250.077 333.691 230.112 326.414 211.388C319.101 192.569 307.847 174.948 290.742 163.669C291.17 163.951 290.681 169.079 290.681 169.752C290.681 170.531 290.092 175.406 290.742 175.835Z" fill="#DCC6BC"/>
<path d="M512.004 292.931C482.836 312.326 445.439 323.625 411.524 309.805C395.575 303.305 381.496 291.667 368.343 280.77C355.137 269.828 342.968 257.612 333.701 243.1C322.79 226.014 315.688 206.886 308.669 187.971C309.543 190.327 307.78 193.687 308.669 196.082C314.862 212.77 321.102 229.57 329.98 245.057C338.719 260.298 350.302 273.292 363.518 284.789C376.38 295.977 390.368 307.489 405.636 315.22C421.295 323.148 439.27 325.434 456.583 323.214C476.606 320.646 495.315 312.138 512.004 301.041C513.292 300.186 510.801 293.731 512.004 292.931Z" fill="#DCC6BC"/>
<path d="M273.628 175.857C245.856 191.64 229.488 221.036 211.702 246.412C201.145 261.475 190.331 276.356 179.266 291.051C169.445 304.093 159.926 318.381 147.551 329.183C133.299 341.623 115.086 345.192 96.6269 344.933C96.605 344.933 96.5271 353.042 96.6269 353.044C112.815 353.27 129.461 350.762 142.862 341.046C156.117 331.435 165.682 317.075 175.463 304.192C186.585 289.543 197.456 274.702 208.072 259.681C217.578 246.231 226.544 232.367 236.415 219.182C246.736 205.397 258.519 192.556 273.628 183.969C274.834 183.283 272.515 176.49 273.628 175.857Z" fill="#DCC6BC"/>
<path d="M292.041 173.645C274.619 200.211 256.927 227.198 246.654 257.493C236.922 286.194 234.725 316.321 235.088 346.424C235.297 363.782 236.732 381.084 238.829 398.31C238.506 395.654 239.154 392.869 238.829 390.199C235.122 359.741 233.503 329.106 238.483 298.687C242.978 271.232 253.252 245.795 266.999 221.717C274.796 208.061 283.42 194.901 292.041 181.755C293.298 179.84 290.82 175.507 292.041 173.645Z" fill="#DCC6BC"/>
<path d="M500.486 357.578C491.502 370.074 477.172 378.178 461.745 378.999C453.509 379.437 445.969 378.803 438.662 383.293C432.979 386.785 428.414 391.769 423.507 396.214C418.306 400.924 412.645 405.038 405.65 406.515C397.696 408.195 389.348 406.668 381.923 403.605C366.064 397.062 354.858 383.41 341.859 372.79C335.539 367.627 328.607 362.971 320.884 360.199C313.734 357.633 303.359 355.432 297.231 361.274C291.305 366.923 288.199 376.789 285.973 384.434C283.514 392.88 282.985 401.82 280.078 410.137C277.683 416.989 272.993 423.688 265.866 426.172C257.868 428.96 251.111 424.189 245.347 419.12C231.583 407.015 218.188 394.499 204.211 382.634C174.42 357.343 141.33 334.4 102.759 325.271C103.308 325.401 102.095 333.225 102.759 333.382C136.799 341.439 166.811 360.349 193.76 382.086C208.055 393.617 221.653 405.971 235.304 418.247C241.327 423.664 247.673 431.139 255.402 434.099C262.495 436.816 269.643 433.681 274.453 428.248C280.018 421.962 281.629 413.502 283.107 405.5C284.781 396.437 287.035 387.695 290.983 379.325C292.54 376.026 294.213 372.458 296.789 369.809C300.087 366.42 304.497 365.606 309.071 365.834C317.209 366.24 324.971 369.454 331.838 373.681C346.399 382.644 357.128 396.412 371.273 405.924C384.194 414.613 401.58 419.375 415.659 410.5C421.98 406.516 426.929 400.797 432.56 395.965C439.516 389.997 446.43 387.325 455.633 387.203C464.49 387.085 472.714 386.09 480.804 382.227C488.682 378.464 495.398 372.767 500.487 365.689C501.787 363.88 499.226 359.331 500.486 357.578Z" fill="#DCC6BC"/>
<path d="M223.004 449.971C153.846 454.175 174.364 366.988 105.036 388.522C35.7081 410.056 19.2576 415.556 19.2576 415.556C19.2576 415.556 42.5361 403.753 65.1203 370.139C87.7045 336.526 92.4309 308.69 134.448 349.131C176.465 389.572 292.127 445.769 223.004 449.971Z" fill="#715442"/>
<path d="M277.173 121.228C266.932 121.228 257.1 113.847 257.1 113.847L259.841 137.984C259.841 137.984 272.971 137.641 279.142 135.278C285.314 132.914 277.173 121.228 277.173 121.228Z" fill="#4A220E"/>
<path d="M285.708 65.5933C277.745 65.9664 268.71 65.9689 263.942 73.5448C261.611 77.25 260.736 81.8028 259.757 86.0093C258.67 90.683 257.754 95.4014 257.353 100.189C256.217 113.753 257.867 127.532 263.472 140.011C262.973 138.898 263.982 137.091 263.472 135.955C260.734 129.859 258.837 123.473 257.872 116.855C256.58 107.986 257.605 99.4659 259.588 90.8071C260.961 84.8089 262.158 77.9062 267.289 73.8765C272.554 69.7422 279.369 69.9458 285.709 69.6489C285.802 69.6449 285.676 65.5949 285.708 65.5933Z" fill="#260113"/>
<path d="M274.772 63.9986C268.002 67.3194 262.379 72.5195 258.735 79.1489C254.927 86.0783 254.114 93.8172 253.967 101.594C253.706 115.332 253.315 130.56 262.797 141.606C262.142 140.842 263.478 138.343 262.797 137.55C252.908 126.029 252.168 107.361 255.074 93.2535C257.351 82.2027 264.678 73.0054 274.773 68.0535C275.331 67.7801 274.263 64.2485 274.772 63.9986Z" fill="#5E0433"/>
<path d="M268.898 65.7653H260.148C260.148 65.7653 242.553 77.3287 244.216 109.629C245.879 141.929 251.569 140.616 251.569 140.616L257.1 141.085C257.1 141.085 249.643 122.759 251.306 96.936C252.97 71.1138 268.898 65.7653 268.898 65.7653Z" fill="#4A220E"/>
<path d="M257.609 2.26791C237.913 -0.0519103 213.141 24.2827 218.349 48.7925C223.558 73.3023 230.91 75.2279 227.059 88.5336C223.208 101.839 218.73 106.232 227.759 102.543C236.789 98.8535 249.985 98.1624 235.808 68.9262C221.632 39.6892 257.609 2.26791 257.609 2.26791Z" fill="#DDA885"/>
<path d="M263.474 9.62808C266.37 12.7241 271.643 17.4984 272.365 22.0237C272.365 21.348 272.365 20.6716 272.365 19.9959C272.191 21.1493 271.978 22.1786 272.063 23.358C272.284 26.4614 274.527 28.3845 275.857 31.0029C279.047 37.2834 276.619 44.7588 278.078 51.4165C278.077 50.753 278.077 50.0887 278.076 49.4252C277.772 58.238 266.573 54.7105 261.255 54.047C255.57 53.3388 249.892 52.5861 244.217 51.8058C244.293 51.8164 244.111 53.819 244.217 53.8336C249.334 54.5377 254.454 55.2158 259.578 55.8647C263.074 56.3067 266.572 56.7553 270.08 57.0992C272.792 57.3653 274.868 57.6962 276.756 55.185C277.939 53.6122 278.285 51.6192 278.087 49.6863C277.798 46.875 277.713 44.1755 277.708 41.339C277.702 37.9607 277.549 34.5061 276.669 31.2267C275.738 27.7511 272.358 25.2682 272.071 21.6279C272.071 22.3035 272.071 22.98 272.071 23.6557C272.203 22.2581 272.617 20.9117 272.249 19.5035C271.097 15.0975 266.416 10.745 263.475 7.60107C263.804 7.9531 263.129 9.25983 263.474 9.62808Z" fill="#050505"/>
<path d="M273.978 67.3502C269.689 63.1486 271.439 56.7585 271.439 56.7585" stroke="#050505" stroke-width="0.5" stroke-miterlimit="10"/>
<path d="M295.663 82.4274C303.039 94.4856 312.493 106.915 312.318 117.244C312.143 127.573 306.814 135.997 308.078 145.265" stroke="#050505" stroke-width="0.5" stroke-miterlimit="10"/>
<path d="M294.649 77.0245C285.008 63.6734 276.254 66.475 269.601 70.151C262.948 73.8278 253.495 96.0616 255.071 107.966C256.647 119.871 259.623 139.478 259.623 139.478" stroke="#050505" stroke-width="0.5" stroke-miterlimit="10"/>
<path d="M282.072 131.528C270.827 139.304 258.222 144.38 249.118 140.354" stroke="#050505" stroke-width="0.5" stroke-miterlimit="10"/>
<path d="M278.424 120.488C262.073 120.395 256.297 114.551 254.896 103.293" stroke="#050505" stroke-miterlimit="10"/>
<path d="M261.152 65.6047C244.916 74.0031 237.975 112.406 251.163 141.086" stroke="#4A220E" stroke-miterlimit="10"/>
<path d="M292.01 133.438C299.626 149.457 299.1 158.911 301.727 164.163C304.352 169.415 307.241 180.969 307.241 180.969" stroke="#050505" stroke-miterlimit="10"/>
<path d="M295.861 85.3824C298.69 104.845 297.525 115.582 297.525 115.582" stroke="#050505" stroke-miterlimit="10"/>
<path d="M306.238 200.058C311.054 215.586 319.583 223.249 319.583 223.249" stroke="#050505" stroke-miterlimit="10"/>
<path d="M252.949 27.6391C248.669 31.0345 244.282 32.8141 242.619 38.4319C241.075 43.6483 243.3 49.8534 246.327 54.6099C249.308 59.2925 252.877 62.1436 254.23 67.7947C255.155 71.6589 255.281 75.6269 255.299 79.5804C255.329 85.8301 255.07 92.1106 253.801 98.2492C254.146 96.5791 253.452 94.6835 253.801 92.9972C255.113 86.6501 255.754 79.9778 254.362 73.6024C253.297 68.7291 250.938 65.8618 247.915 62.0909C244.648 58.0141 242.669 52.8805 242.04 47.7161C241.352 42.0755 239.43 29.9508 242.509 25.0273C244.992 21.0568 252.486 14.391 255.902 11.2844C259.294 8.20048 261.583 20.79 252.949 27.6391Z" fill="#E8BD92"/>
<path d="M260.735 9.52587C259.657 13.6002 256.553 15.9849 253.194 18.1976C244.821 23.7141 239.461 30.1731 241.906 40.6439C244.378 51.2356 249.642 60.8912 252.564 71.332C253.853 75.936 255.2 83.5606 252.696 88.008C253.435 86.6956 251.939 84.1016 252.696 82.7559C253.049 82.1289 253.226 81.5814 253.482 80.9155C253.949 79.6988 254.139 82.2011 253.478 80.518C252.812 78.8236 252.635 76.7633 252.087 74.9975C250.667 70.4146 248.818 65.9713 247.09 61.4987C243.964 53.4094 240.879 45.1797 240.746 36.4114C240.639 29.3911 241.436 22.5931 246.876 17.4952C249.463 15.0707 252.658 13.5174 255.471 11.4036C256.88 10.3451 258.232 9.18357 259.215 7.70246C259.735 6.9181 261.503 6.62366 260.735 9.52587Z" fill="#DDB38E"/>
<path d="M257.609 13.8662C253.303 16.315 248.358 18.9958 245.383 23.1098C244.592 24.2032 244.266 25.3315 243.708 26.51C243.112 27.7665 243.442 32.6356 243.431 24.0247C243.421 16.6662 243.392 19.9269 243.559 21.7106C244.116 27.6732 244.707 34.8022 242.988 40.6106C240.371 49.4576 231.841 58.3881 224.624 63.8672C223.674 64.5883 219.749 67.7322 218.35 66.0808C217.753 65.3759 218.297 61.768 218.297 60.8288C218.297 59.8862 219.641 52.552 219.034 51.8358C220.364 53.4053 223.349 54.3097 224.305 53.6089C228.097 50.8308 231.308 47.1637 234.346 43.615C237.706 39.6916 241.256 35.55 242.859 30.5405C243.124 29.714 243.241 28.8517 243.484 28.0244C244.62 24.1594 244.043 37.1066 243.653 33.4103C243.54 32.342 243.454 31.2584 243.399 30.1844C243.206 26.4443 243.152 22.598 243.364 18.8603C243.811 10.968 251.415 6.88565 257.609 3.36212C256.163 4.1846 259.173 12.9764 257.609 13.8662Z" fill="#FFD3B6"/>
<path d="M246.955 14.3683C244.039 18.0873 241.032 21.8753 239.137 26.244C238.726 27.1922 237.182 33.9829 237.359 29.4861C237.265 31.8724 238.059 34.6189 238.516 36.9508C240.439 46.7833 243.757 56.2678 246.148 65.9843C248.035 73.6527 248.685 80.8392 248.659 88.6836C248.65 91.843 248.706 95.021 247.64 98.0481C246.111 102.389 242.763 105.692 239.539 108.826C240.019 108.36 239.486 104.329 239.486 103.574C239.486 102.693 238.883 98.9606 239.539 98.3222C243.02 94.9358 245.257 91.6929 247.64 87.544C248.04 85.3564 248.242 85.135 248.244 86.8781C248.062 85.6151 247.851 84.3563 247.609 83.1031C247.131 80.5667 246.545 78.0514 245.915 75.5483C243.475 65.8448 240.175 56.357 238.337 46.5051C237.054 39.6276 236.917 32.7476 237.112 25.7719C237.356 17.0393 241.711 10.5536 246.955 3.86502C246.424 4.54231 247.008 8.19887 247.008 9.11706C247.007 10.178 247.635 13.5012 246.955 14.3683Z" fill="#CE9A78"/>
<path d="M223.613 42.0625C224.729 48.7665 228.73 54.9481 230.442 61.4882C229.252 66.0013 227.04 70.1778 224.518 74.1604C222.913 76.6944 226.078 82.2011 224.518 84.6645C228.251 78.7684 230.681 72.8983 231.196 66.1603C231.206 66.3485 231.228 66.535 231.232 66.7248C231.233 66.2341 231.234 65.7434 231.236 65.2526C231.263 64.6986 231.307 64.1527 231.309 63.5866C231.318 60.8174 232.398 25.8376 245.965 11.329C246.714 10.5284 268.156 -3.02713 245.965 0.824911C239.563 2.77486 232.924 5.28366 228.405 10.4659C224.3 15.1737 223.168 21.1744 223.08 27.2327C223.009 32.1425 222.802 37.199 223.613 42.0625Z" fill="#CE9A78"/>
<path d="M240.284 15.2727C234.426 20.4461 229.067 25.7094 228.411 33.9059C228.417 32.4118 228.423 30.9169 228.429 29.4228C228.604 48.2474 243.385 63.9394 243.219 82.7259C243.154 90.1769 239.481 98.508 234.133 103.792C232.25 105.654 232.256 105.029 232.204 102.839C232.192 102.334 231.889 98.9298 232.723 99.2721C233.371 99.5373 232.143 104.286 232.723 104.524C232.474 104.324 232.31 104.405 232.229 104.767C232.229 103.016 232.229 101.265 232.229 99.5146C232.821 100.928 238.033 93.1367 238.63 92.1739C241.058 88.2562 242.735 84.2273 243.191 79.6193C243.184 80.0533 243.175 80.4864 243.168 80.9195C243.172 80.3566 243.176 79.7937 243.18 79.2308C243.187 80.5481 243.195 81.8653 243.202 83.1818C242.432 74.8994 238.091 67.0761 235.159 59.3858C232.303 51.8926 228.872 43.727 228.424 35.6295C228.281 33.0582 228.252 30.3442 228.481 27.773C229.167 20.1054 234.836 14.8314 240.284 10.0207C239.438 10.7677 241.174 14.4859 240.284 15.2727Z" fill="#EDB78E"/>
<path d="M259.709 11.3274C250.693 11.7126 240.205 13.1167 233.728 20.1183C231.011 23.0562 229.411 26.7501 228.759 30.6743C228.143 34.3893 229.89 37.6979 228.461 26.9569C228.673 28.5484 228.739 30.1439 229 31.7337C229.493 34.73 230.317 37.6257 231.108 40.5522C234.659 53.7071 237.095 67.2074 237.412 80.8546C237.63 90.2572 237.835 99.8909 235.943 109.147C236.626 105.803 235.254 102.019 235.943 98.6434C236.416 96.3317 236.776 94.0087 237.008 91.6596C237.031 91.4309 236.905 87.0119 237.341 86.5779C237.382 89.9936 237.363 90.4551 237.287 87.9625C237.261 87.4458 237.234 86.93 237.208 86.4133C236.788 79.0117 235.732 71.6451 234.273 64.3807C232.007 53.1028 228.376 42.6895 228.35 31.1067C228.333 23.2988 228.227 15.2865 234.042 9.27683C240.545 2.55585 245.815 0.721081 254.676 0.342285C263.386 3.3832 259.939 11.3176 259.709 11.3274Z" fill="#EDB78E"/>
<path d="M312.911 109.498C300.528 127.193 272.426 150.901 249.877 135.685C250.313 135.979 249.816 141.086 249.816 141.769C249.816 142.559 249.218 147.408 249.877 147.852C272.427 163.068 300.528 139.36 312.911 121.665C313.615 120.658 312.972 116.818 312.972 115.581C312.972 114.339 312.195 110.521 312.911 109.498Z" fill="#6B351A"/>
<path d="M309.942 122.103C299.068 138.87 272.84 163.764 251.569 148.29C252.03 148.626 251.508 153.658 251.508 154.373C251.508 155.206 250.886 159.96 251.569 160.457C272.839 175.931 299.069 151.036 309.942 134.27C310.645 133.186 310.002 129.482 310.002 128.186C310.002 126.884 309.229 123.203 309.942 122.103Z" fill="#67432C"/>
<path d="M308.739 133.494C298.256 150 272.503 175.231 251.569 159.681C252.038 160.03 251.508 165.04 251.508 165.765C251.508 166.609 250.879 171.336 251.569 171.848C272.503 187.398 298.257 162.166 308.739 145.661C309.441 144.556 308.8 140.89 308.8 139.578C308.8 138.259 308.028 134.614 308.739 133.494Z" fill="#715442"/>
<path d="M515.601 314.847C498.281 322.757 478.364 322.769 459.815 320.364C444.224 318.343 428.844 314.465 413.981 309.376C410.941 308.335 407.902 307.264 404.93 306.043C405.379 306.228 404.429 309.892 404.93 310.098C413.307 313.541 422.063 316.212 430.798 318.556C448.353 323.266 466.696 326.453 484.926 325.67C495.467 325.218 505.963 323.305 515.601 318.903C516.136 318.658 515.116 315.068 515.601 314.847Z" fill="#260113"/>
<path d="M295.861 175.295C316.453 191.199 322.568 215.687 327.266 240.024C331.977 264.422 337.152 289.686 356.307 307.212C370.739 320.417 389.776 327.114 408.606 331.106C408.36 331.055 408.909 327.115 408.606 327.051C391.573 323.44 374.473 317.672 360.617 306.806C350.336 298.744 342.696 288.096 337.697 276.072C328.249 253.345 327.851 228.156 319.611 205.071C314.848 191.727 307.143 179.953 295.861 171.239C296.496 171.729 295.189 174.775 295.861 175.295Z" fill="#260113"/>
<path d="M517.325 268.227C509.977 282.146 499.324 294.893 483.921 299.953C464.196 306.431 442.67 299.391 424.807 290.705C409.773 283.394 395.747 274.074 382.365 264.103C368.754 253.961 355.417 243.125 343.834 230.672C333.903 219.995 325.187 207.898 323.216 193.144C322.768 189.788 322.722 185.976 320.499 183.211C317.262 179.184 310.955 177.953 306.238 176.841C306.511 176.905 305.907 180.819 306.238 180.896C310.747 181.96 316.352 183.101 319.792 186.494C322.023 188.695 322.512 191.671 322.899 194.651C324.579 207.567 329.8 218.041 338.084 228.163C347.372 239.51 358.506 249.324 369.893 258.498C384.134 269.973 399.102 280.749 415.089 289.673C433.799 300.117 456.573 309.893 478.473 305.446C496.531 301.779 509.04 287.975 517.325 272.281C517.888 271.214 516.773 269.271 517.325 268.227Z" fill="#260113"/>
<path d="M494.215 263.85C492.771 270.262 491.473 276.736 489.625 283.047C488.388 287.273 486.887 291.694 484.016 295.119C477.56 302.82 465.691 302.002 456.675 301.501C456.72 301.504 456.57 305.551 456.675 305.557C465.678 306.056 477.573 306.88 484.016 299.175C486.8 295.844 488.291 291.585 489.513 287.482C491.427 281.053 492.742 274.444 494.214 267.906C494.506 266.614 493.927 265.13 494.215 263.85Z" fill="#260113"/>
<path d="M499.73 371.694C482.267 388.38 458.522 382.906 441.216 369.055C439.548 367.72 437.907 366.353 436.262 364.99C435.772 364.585 434.095 362.744 433.362 362.731C432.118 362.708 432.637 364.317 432.648 365.562C432.666 367.495 433.11 369.195 433.538 371.085C434.496 375.319 434.841 379.532 435.193 383.851C435.664 389.649 437.983 394.937 439.145 400.58C439.267 401.171 439.304 401.809 439.46 402.387C439.835 403.784 439.571 402.108 439.517 402.339C439.223 403.611 439.006 404.791 438.422 405.983C437.052 408.779 434.629 410.928 432.117 412.683C413.587 425.629 390.229 426.799 370.022 417.529C350.831 408.725 332.639 392.606 322.735 373.796C323.286 374.842 322.171 376.781 322.735 377.852C331.496 394.491 346.743 408.689 362.943 417.941C372.384 423.333 382.903 427.2 393.823 427.87C405.367 428.577 416.565 425.094 426.77 419.883C432.347 417.034 438.756 412.949 439.55 406.149C440.041 401.949 439.536 397.645 438.411 393.6C437.664 390.912 436.769 388.268 436.131 385.551C435.249 381.801 435.206 378.032 434.774 374.222C434.424 371.14 434.164 367.054 432.862 364.178C431.918 362.091 432.923 366.979 432.743 366.701C432.697 366.629 433.104 366.62 433.161 366.686C433.771 367.386 434.987 367.996 435.717 368.596C444.588 375.875 453.522 382.602 464.925 385.287C477.789 388.316 490.19 384.867 499.73 375.752C500.42 375.089 499.071 372.323 499.73 371.694Z" fill="#260113"/>
<path d="M417.535 375.108C416.593 378.633 415.127 382.911 411.339 379.345C409.038 377.179 407.258 374.365 405.47 371.785C402.217 367.09 399.079 362.316 395.866 357.594C388.732 347.109 382.361 336.73 377.191 325.124C375.459 321.235 373.862 317.267 371.939 313.466C371.179 311.965 369.759 308.418 367.747 308.141C365.634 307.85 364.508 310.971 363.881 312.466C361.596 317.915 360.507 323.835 358.976 329.517C357.538 334.853 355.961 340.223 353.682 345.27C352.387 348.138 350.8 351.398 348.206 353.328C343.774 356.628 339.221 352.698 336.189 349.401C331.707 344.527 328.69 339.693 327.607 333.126C325.683 321.461 328.344 309.925 327.774 298.257C327.601 294.715 326.39 297.01 325.431 299.118C321.216 308.378 318.166 318.304 314.872 327.911C306.855 351.291 301.045 375.554 292.055 398.584C288.508 407.669 281.863 423.873 269.44 417.11C262.603 413.389 257.39 406.54 253.16 400.193C247.809 392.166 243.539 383.434 239.774 374.568C234.01 360.993 229.343 346.887 225.653 332.609C225.446 331.808 225.239 331.006 225.047 330.201C225.351 331.472 224.739 332.972 225.047 334.257C227.622 345.025 231.03 355.654 234.826 366.046C241.085 383.174 248.707 401.767 261.696 414.981C265.419 418.769 270.781 423.623 276.58 422.83C281.909 422.101 285.312 416.749 287.648 412.434C291.88 404.616 294.607 395.954 297.314 387.523C301.17 375.51 304.701 363.395 308.503 351.365C312.668 338.186 317.118 325.09 321.908 312.124C323.066 308.992 324.438 302.115 327.402 300.214C327.504 300.148 327.84 301.22 327.722 301.246C327.747 301.241 327.736 301.686 327.751 301.687C327.64 301.678 327.886 298.738 327.728 300.1C327.662 300.664 327.675 301.247 327.644 301.814C327.493 304.595 327.28 307.371 327.12 310.151C326.786 315.958 326.647 321.782 326.798 327.597C326.949 333.363 327.288 339.708 329.873 344.977C332.175 349.671 337.146 356.208 342.207 358.186C347.78 360.365 351.307 354.359 353.321 350.107C358.341 339.506 359.372 327.648 363.741 316.861C364.344 315.371 365.492 311.991 367.618 312.176C369.633 312.352 371.023 315.732 371.787 317.217C376.367 326.112 379.746 335.547 384.616 344.318C390.626 355.143 398.181 365.278 405.214 375.463C406.573 377.43 411.486 386.531 414.969 384.683C416.587 383.825 417.125 380.697 417.536 379.159C417.873 377.895 417.2 376.361 417.535 375.108Z" fill="#260113"/>
<path d="M331.401 225.277C341.194 246.549 349.389 268.948 361.37 289.134C370.581 304.653 383.02 316.952 400.068 323.487C412.415 328.221 425.685 330.113 438.805 331.106C438.733 331.101 438.937 327.061 438.805 327.051C418.106 325.483 396.349 321.486 379.955 307.828C365.419 295.718 356.926 278.027 349.231 261.151C343.183 247.887 337.496 234.463 331.4 221.221C331.909 222.325 330.882 224.151 331.401 225.277Z" fill="#260113"/>
<path d="M268.898 182.356C244.298 209.147 220.976 237.012 196.945 264.3C189.138 273.164 181.174 281.925 172.552 290.008C161.908 299.989 149.765 308.126 138.968 317.939C130.938 325.239 122.647 333.184 116.59 342.281C115.957 343.231 117.204 345.416 116.59 346.337C130.161 325.955 151.576 312.98 169.436 296.926C188.976 279.361 205.504 258.49 222.598 238.629C237.775 220.995 253.161 203.548 268.897 186.411C269.585 185.663 268.239 183.074 268.898 182.356Z" fill="#260113"/>
<path d="M274.772 183.406C262.93 221.99 248.762 259.752 234.127 297.347C224.077 323.167 213.806 348.509 209.154 375.958C207.896 383.382 206.858 390.97 207.183 398.523C207.142 397.556 207.247 395.84 207.194 394.613C207.159 393.81 206.974 398.394 207.203 396.821C207.286 396.25 207.251 395.623 207.284 395.047C207.405 392.967 207.617 390.89 207.864 388.821C208.699 381.834 210 374.902 211.477 368.026C213.804 357.2 216.991 346.798 220.763 336.397C231.148 307.766 242.835 279.621 253.302 251.017C260.987 230.014 268.211 208.845 274.773 187.463C275.154 186.219 274.396 184.633 274.772 183.406Z" fill="#260113"/>
<path d="M259.097 178.942C240.118 197.589 223.461 218.001 208.169 239.736C199.02 252.738 190.077 266.976 176.682 276.061C168.854 281.37 159.651 284.758 150.402 286.544C142.363 288.097 134.878 287.174 126.838 286.95C115.379 286.629 113.047 302.242 113.785 311.198C114.051 314.416 115.416 316.8 116.845 319.584C117.012 319.909 117.198 320.503 117.433 320.767C117.516 320.859 117.466 321.135 117.549 321.207C117.547 320.008 117.545 318.807 117.543 317.607C117.534 317.643 117.526 317.678 117.516 317.714C117.479 317.718 117.427 318.004 117.365 318.021C116.48 318.257 115.435 319.155 114.408 319.439C107.082 321.467 99.1714 322.02 91.6742 323.097C76.8119 325.231 61.9521 327.407 47.1223 329.758C37.3036 331.315 27.4492 332.871 17.7579 335.11C13.1223 336.181 7.49636 337.192 3.5551 340.07C1.00248 341.935 0.874327 344.721 1.28476 347.739C2.03667 353.264 8.06982 353.378 12.5197 353.084C15.3164 352.899 19.0038 352.016 21.6789 353.192C22.228 353.433 22.5217 353.765 23.0002 354.077C23.8933 354.659 23.13 356.14 23.6434 354.421C24.2575 352.364 23.2655 355.135 23.083 355.702C22.7212 356.824 22.2321 357.907 21.7584 358.985C18.8302 365.644 15.4892 372.115 12.9033 378.924C9.69208 387.377 4.64363 405.706 18.3955 407.295C23.2452 407.855 28.245 406.719 32.9073 405.509C33.2634 405.416 32.608 401.531 32.9073 401.453C26.8514 403.025 15.9832 405.936 11.3241 399.783C10.6297 398.866 10.1796 397.811 9.88837 396.704C9.68153 395.915 9.62151 395.129 9.53553 394.321C9.76427 396.465 9.66936 394.648 9.847 393.544C10.3929 390.156 11.4611 386.856 12.6527 383.646C15.1704 376.865 18.4587 370.419 21.4096 363.825C22.7471 360.837 26.2561 352 22.2475 349.398C19.9447 347.903 16.0391 348.768 13.5092 348.954C10.5373 349.173 6.91316 349.631 4.18615 348.112C3.169 347.546 2.39519 346.756 1.86796 345.715C1.76008 345.501 1.46969 344.216 1.33018 344.132C0.166214 343.44 2.27839 347.515 1.3099 347.258C1.34073 347.266 1.32937 346.925 1.37317 346.898C1.50295 346.82 1.49808 346.332 1.62543 346.195C2.00179 345.79 2.24756 345.258 2.65475 344.851C5.51315 341.992 10.6013 340.971 14.3358 340C22.8721 337.781 31.6233 336.348 40.3169 334.913C63.8753 331.024 87.7589 328.627 111.215 324.188C113.197 323.812 116.869 323.627 117.573 321.366C118.411 318.675 117.26 316.351 116.035 314.143C115.331 312.873 114.713 311.575 114.318 310.173C114.078 309.321 114.025 308.448 113.826 307.595C113.359 305.588 113.336 310.954 113.855 307.878C113.964 307.233 114.03 306.583 114.157 305.939C115.121 301.056 117.295 293.115 122.73 291.399C127.998 289.735 134.776 291.862 140.214 291.727C150.397 291.475 160.77 288.633 169.868 284.096C183.464 277.317 192.816 265.412 201.462 253.302C214.617 234.881 227.608 216.559 242.884 199.785C248.124 194.031 253.547 188.45 259.097 182.996C259.787 182.319 258.438 179.591 259.097 178.942Z" fill="#260113"/>
<path d="M286.32 185.419C277.309 210.283 269.243 235.514 262.39 261.06C256.708 282.244 251.243 304.009 249.612 325.951C249.114 332.65 248.864 339.674 249.876 346.338C249.677 345.021 250.077 343.607 249.876 342.282C248.73 334.736 249.724 327.003 250.738 319.494C251.999 310.164 253.804 300.91 255.838 291.721C260.72 269.658 266.941 247.886 273.784 226.357C277.717 213.981 281.896 201.685 286.32 189.476C286.756 188.271 285.891 186.604 286.32 185.419Z" fill="#260113"/>
<path d="M267.808 187.171C245.195 238.032 221.951 289.369 206.457 342.963C203.642 352.698 201.135 362.516 198.873 372.394C198.578 373.685 199.166 375.173 198.873 376.45C208.963 332.376 225.289 290.256 242.825 248.677C250.94 229.435 259.324 210.308 267.808 191.226C268.315 190.087 267.312 188.287 267.808 187.171Z" fill="#260113"/>
<path d="M248.659 176.841C228.571 205.61 212.483 237.515 190.134 264.654C181.205 275.496 170.833 285.519 158.173 291.873C146.132 297.917 131.852 301.06 118.443 301.903C110.981 302.372 103.293 301.534 96.1735 304.289C85.8389 308.289 78.2622 316.921 68.0266 321.278C56.5751 326.151 44.2266 328.48 32.1481 331.226C23.2241 333.256 11.6047 335.04 4.77745 341.753C0.058321 346.393 1.15577 352.675 1.54998 358.646C1.97339 365.058 1.62623 371.502 1.87119 377.922C2.35786 390.674 5.27386 404.705 18.6899 409.593C28.3447 413.111 39.4498 411.667 49.2515 409.644C66.3208 406.121 82.5628 399.383 99.5064 395.284C121.935 389.859 145.809 387.087 167.716 396.011C190.184 405.163 208.334 422.657 229.219 434.634C240.195 440.928 252.351 447.094 265.081 448.661C270.759 449.36 279.181 449.219 282.974 444.034C286.248 439.557 286.984 432.479 287.977 427.212C289.625 418.464 290.819 409.632 292.068 400.82C293.301 392.127 294.483 383.411 296.162 374.79C297.075 370.103 297.757 362.921 301.097 359.161C304.17 355.702 306.707 361.593 307.714 363.968C310.369 370.228 312.656 376.49 315.968 382.467C319.849 389.471 324.451 396.08 329.673 402.151C349.585 425.3 379.648 440.9 410.027 429.729C420.896 425.732 429.948 419.302 436.733 409.914C440.466 404.748 443.811 398.058 451.025 397.847C455.577 397.714 459.854 399.53 464.473 399.287C470.262 398.983 475.917 397.13 481.081 394.569C492.684 388.812 502.69 379.081 508.391 367.417C513.99 355.962 513.039 344.557 512.857 332.243C512.768 326.212 511.237 311.749 520.017 310.226C522.821 309.74 525.352 310.792 527.136 307.997C528.87 305.281 528.817 301.538 528.839 298.432C528.905 289.035 527.243 279.778 523.333 271.18C519.267 262.24 511.064 252.399 500.157 257.095C495.964 258.901 492.735 262.236 488.742 264.363C484.361 266.697 481.835 265.136 478.227 262.359C476.026 260.664 472.699 258.219 469.723 259.293C467.457 260.112 466.428 262.733 465.742 264.829C463.406 271.958 463.277 279.641 461.007 286.808C458.8 293.778 454.531 299.413 446.634 299.236C446.634 299.236 446.573 303.29 446.634 303.291C463.746 303.676 462.054 280.141 465.742 268.884C466.429 266.787 467.457 264.167 469.723 263.349C472.486 262.351 475.553 264.436 477.659 265.984C481.259 268.63 483.658 270.897 488.194 268.705C492.232 266.753 495.425 263.401 499.486 261.46C509.734 256.563 518.038 264.696 522.414 273.322C524.892 278.208 526.596 283.505 527.679 288.868C528.238 291.638 528.429 294.385 528.764 297.182C528.831 297.743 528.621 298.94 528.786 296.832C528.737 297.457 528.716 298.077 528.644 298.698C528.524 299.735 528.353 300.775 528.049 301.775C527.083 304.961 525.567 305.922 522.404 306.009C519.989 306.074 517.61 306.382 515.921 308.292C513.752 310.746 513.408 314.641 513.127 317.739C512.73 322.115 512.767 326.534 512.786 330.925C512.816 337.795 513.682 344.876 512.366 351.652C511.115 358.091 508.406 364.193 504.777 369.637C497.82 380.069 487.335 388.679 475.48 392.906C470.468 394.694 465.019 395.731 459.693 395.093C455.789 394.625 452.039 393.078 448.087 394.218C441.755 396.044 438.538 403.708 434.768 408.47C417.675 430.06 386.381 434.604 362.186 423.42C348.497 417.092 336.722 406.932 327.301 395.249C322.413 389.187 318.116 382.639 314.524 375.729C311.701 370.3 309.845 364.539 307.314 359C306.144 356.438 303.66 351.784 300.878 355.396C297.694 359.532 296.992 366.393 296.048 371.324C292.759 388.503 291.215 405.969 287.976 423.158C286.98 428.442 286.206 435.025 283.192 439.641C279.786 444.856 271.633 445.258 266.129 444.722C254.273 443.567 242.863 438.097 232.558 432.453C219.417 425.254 207.436 416.361 195.165 407.826C179.204 396.725 162.572 387.566 142.783 386.282C130.276 385.471 117.704 387.227 105.5 389.858C88.4597 393.531 72.2737 399.9 55.4209 404.169C40.115 408.045 16.3498 412.248 6.72578 395.639C0.236769 384.44 2.05612 370.27 1.70004 357.887C1.66516 356.668 1.61568 355.449 1.52646 354.232C1.47536 353.534 1.41615 352.836 1.33665 352.141C1.26446 351.51 1.46968 351.295 1.24338 352.851C1.32287 352.305 1.39019 351.776 1.52727 351.24C2.426 347.73 5.07676 345.156 8.05927 343.284C16.7245 337.847 27.888 336.231 37.6986 334.042C49.5557 331.396 61.7615 328.782 72.6427 323.183C81.7647 318.489 88.7914 310.242 98.9159 307.435C106.21 305.412 114.108 306.423 121.578 305.714C135.139 304.428 149.451 300.971 161.364 294.225C187.41 279.475 203.731 251.128 219.124 226.532C228.738 211.169 238.281 195.763 248.661 180.899C249.304 179.975 248.035 177.735 248.659 176.841Z" fill="#260113"/>
<path d="M270.853 56.3246C265.95 56.894 261.041 57.4188 256.115 56.804C251.297 56.2029 246.649 54.7275 242.035 53.2691C242.396 53.3834 241.619 57.1933 242.035 57.3247C246.649 58.7831 251.296 60.2585 256.115 60.8596C261.041 61.4736 265.95 60.9496 270.853 60.3802C271.038 60.3591 270.729 56.3392 270.853 56.3246Z" fill="#D39272"/>
<path d="M244.216 67.9772C252.732 68.3106 261.237 68.0202 269.75 67.7671C274.567 67.6236 279.734 67.1069 284.432 68.4558C295.134 71.5299 295.172 82.3488 296.191 91.6159C298.268 110.511 303.431 129.262 308.167 147.635C311.374 160.079 314.007 172.694 316.903 185.214C319.549 196.656 323.17 207.969 325.361 219.5C328.1 233.913 328.023 248.505 328.42 263.107C328.421 261.779 328.423 260.451 328.425 259.123C325.707 259.123 325.657 259.082 324.014 261.194C322.427 263.233 322.549 264.255 320.429 262.827C318.73 261.682 315.185 260.242 314.069 258.541C313.626 257.866 313.63 256.757 313.496 255.915C312.053 246.83 310.61 237.746 309.168 228.661C309.168 230.013 309.168 231.365 309.168 232.717C309.74 228.142 310.311 223.568 310.883 218.993C311.201 216.451 312.011 213.054 311.446 210.49C310.742 207.289 308.712 203.984 307.455 200.962C304.758 194.477 302.091 187.977 299.553 181.427C291.609 160.929 285.381 139.622 278.518 118.742C275.824 110.546 273.726 102.225 271.086 94.0314C271.478 95.2465 270.689 96.8541 271.086 98.087C272.786 103.36 273.972 108.74 275.659 114.011C278.416 122.633 281.294 131.217 284.15 139.807C289.594 156.181 294.532 172.82 300.88 188.871C304.28 197.465 307.823 206.005 311.444 214.508C311.444 213.156 311.444 211.804 311.444 210.452C310.483 218.137 308.197 226.601 309.43 234.363C310.4 240.47 311.369 246.577 312.339 252.683C312.771 255.398 313.201 258.113 313.633 260.828C313.923 262.651 314.069 262.595 315.698 263.692C317.275 264.755 318.852 265.817 320.429 266.881C321.615 267.68 321.442 267.841 322.371 267.36C323.682 266.68 324.105 264.337 325.352 263.527C326.204 262.974 327.322 263.177 328.425 263.177C328.465 263.177 328.44 259.538 328.431 259.194C328.232 251.833 328.032 244.473 327.833 237.112C327.669 231.081 326.647 225.146 325.855 219.167C324.268 207.17 320.296 195.405 317.479 183.645C314.405 170.81 311.717 157.878 308.555 145.063C304.465 128.484 300.099 111.948 297.272 95.0891C295.643 85.3742 297.622 70.4698 287.107 65.3922C282.795 63.31 277.912 63.5185 273.249 63.615C263.566 63.8153 253.904 64.298 244.217 63.9183C244.239 63.9224 244.132 67.974 244.216 67.9772Z" fill="#050505"/>
<path d="M324.344 241.055C321.351 245.772 316.246 241.467 314.583 238.023C313.371 235.515 312.561 232.796 312.021 230.069C311.707 228.481 311.556 226.902 311.385 225.295C310.736 219.14 311.093 236.894 311.278 235.381C311.44 234.057 311.436 232.709 311.578 231.379C312.212 225.465 314.16 219.745 314.583 213.814C315.022 207.652 314.989 201.223 314.631 195.058C314.296 189.271 311.316 184.172 309.976 178.616C308.431 172.201 307.683 165.726 305.677 159.406C301.829 147.284 296.262 135.773 292.125 123.746C287.396 109.998 283.754 95.9099 281.13 81.6122C282.085 86.8197 280.166 92.5843 281.13 97.8347C284.725 117.431 290.311 136.558 297.776 155.028C301.378 163.937 305.278 172.799 307.515 182.178C308.688 187.098 309.107 192.19 310.56 197.043C311.967 201.746 314.154 206.036 314.61 210.991C314.596 210.622 314.582 210.253 314.569 209.884C314.966 198.755 314.849 195.694 314.218 200.701C314.099 201.444 313.964 202.184 313.811 202.92C313.472 204.645 313.061 206.354 312.713 208.077C312.145 210.892 311.69 213.726 311.437 216.588C310.847 223.269 311.067 230.094 311.174 236.79C311.264 242.377 311.883 247.887 314.071 253.088C315.584 256.684 320.904 262.699 324.344 257.279C325.279 255.805 324.425 250.918 324.425 249.167C324.425 247.255 324.423 245.344 324.401 243.432C324.395 242.944 324.114 241.416 324.344 241.055Z" fill="#D39272"/>
<path d="M272.723 92.7903C278.084 112.401 284.647 131.667 292.461 150.436C296.112 159.205 300.71 167.719 303.81 176.696C305.465 181.489 306.097 186.45 306.864 191.438C307.658 196.596 308.885 201.651 310.165 206.706C310.165 201.298 310.165 195.891 310.165 190.483C309.95 189.802 309.733 189.12 309.517 188.439C310.195 190.576 309.436 194.286 309.436 196.55C309.436 198.963 308.778 202.331 309.517 204.662C309.733 205.343 309.95 206.024 310.165 206.706C309.488 204.569 310.247 200.859 310.247 198.594C310.247 196.081 310.788 192.942 310.165 190.483C308.95 185.68 307.767 180.876 306.981 175.98C306.177 170.978 305.631 165.965 304.038 161.13C300.998 151.902 296.195 143.18 292.462 134.213C284.647 115.443 278.085 96.1776 272.724 76.567C273.34 78.8203 272.643 82.3228 272.643 84.6783C272.642 87.1628 272.061 90.3699 272.723 92.7903Z" fill="#B58061"/>
<path d="M324.36 264.742C325.357 228.986 317.925 193.572 309.655 158.971C304.78 138.571 299.485 118.209 292.945 98.2728C290.475 90.7431 287.876 83.1834 284.487 76.0098C283.122 73.1205 280.784 66.9722 277.185 66.0751C274.812 65.4838 271.872 67.5822 270.111 68.8889C266.366 71.667 263.342 75.4469 261.135 79.5333C258.266 84.8486 256.941 90.7041 256.776 96.7138C256.589 103.548 256.376 110.582 257.609 117.333C256.896 113.426 258.329 109.105 257.609 105.166C257.308 103.517 257.118 101.881 256.937 100.217C256.409 95.3576 256.709 108.113 256.84 107.284C257.004 106.251 256.982 105.175 257.119 104.134C257.437 101.705 258.007 99.3037 258.809 96.9896C260.202 92.9712 262.314 89.1841 265.04 85.9169C267.371 83.1234 273.04 76.9702 277.384 78.3053C280.365 79.2218 282.355 83.898 283.608 86.3719C286.58 92.2453 288.853 98.4837 291.009 104.692C302.465 137.683 310.788 172.205 317.393 206.478C319.895 219.466 321.976 232.555 323.272 245.722C323.658 249.659 323.975 253.603 324.167 257.554C324.222 258.696 324.25 259.84 324.299 260.982C324.431 264.064 324.319 254.388 324.315 257.37C324.337 241.525 324.44 252.289 324.319 253.453C324.283 253.795 324.333 252.893 324.329 253.01C324.225 256.665 324.44 261.864 324.36 264.742Z" fill="#F1DDBC"/>
<path d="M297.763 87.2204C308.817 101.663 310.166 109.673 310.166 109.673C310.166 109.673 303.387 118.995 303.213 118.602C303.04 118.208 297.763 87.2204 297.763 87.2204Z" fill="#4A220E"/>
<path d="M249.731 175.279C257.864 178.346 266.179 181.131 274.892 178.848C282.644 176.816 289.283 171.942 295.629 167.25C296.294 166.759 295.003 163.657 295.629 163.194C289.282 167.887 282.645 172.76 274.892 174.792C266.175 177.077 257.868 174.292 249.731 171.223C250.151 171.381 249.258 175.1 249.731 175.279Z" fill="#260113"/>
<path d="M262.85 5.82065C258.931 8.11127 258.098 11.6681 257.536 15.9111C256.943 20.3804 256.21 24.0913 253.198 27.6261C246.557 35.4219 234.961 38.8448 231.047 48.9742C228.818 54.7405 230.506 59.9227 233.399 65.1545C238.994 75.2717 247.197 87.7809 239.039 98.8641C238.712 99.3094 239.357 100.461 239.039 100.892C242.694 95.9262 243.286 89.4477 242.358 83.4786C241.5 77.9687 238.905 72.9356 236.222 68.1183C233.504 63.237 228.805 57.5405 230.813 51.6768C234.371 41.2928 245.963 37.7587 252.793 30.1277C255.904 26.6512 256.903 22.9516 257.476 18.4296C258.03 14.0503 258.764 10.2356 262.85 7.84765C263.156 7.67002 262.568 5.98612 262.85 5.82065Z" fill="#260113"/>
<path d="M260.866 0C251.532 11.0694 231.086 12.9285 228.397 29.2971C226.577 40.3787 233.718 56.8988 221.093 63.1332C220.533 63.4098 221.605 66.9365 221.093 67.1888C234.062 60.785 226.693 44.0076 228.397 33.3527C231.013 17.0036 251.562 15.0886 260.866 4.05563C261.544 3.2518 260.213 0.774625 260.866 0Z" fill="#050505"/>
<path d="M276.823 42.4C274.415 43.3652 274.806 43.7148 272.532 43.7586C270.257 43.8024 267.895 45.3338 267.895 45.3338" stroke="#050505" stroke-width="0.25" stroke-miterlimit="10"/>
<path d="M276.647 41.7024C275.29 40.1702 274.809 40.9586 273.584 41.7024C272.358 42.4462 272.183 41.0414 270.564 42.4008C268.945 43.7594 267.895 44.7231 267.895 44.7231C267.895 44.7231 271.841 43.1316 273.234 43.2784C274.628 43.4253 276.647 41.7024 276.647 41.7024Z" fill="#F48583"/>
<path d="M276.823 42.7731C276.681 45.1708 275.247 47.2059 272.271 46.3193C269.294 45.4328 268.507 45.3346 268.507 45.3346C268.507 45.3346 268.901 44.1861 271.79 44.2185C274.678 44.251 276.647 42.7731 276.647 42.7731H276.823Z" fill="#F48583"/>
<path d="M271.877 37.5008C272.709 37.0198 272.928 36.1876 271.877 36.2752C270.827 36.3628 270.039 37.5008 270.039 37.5008H271.877Z" fill="#050505"/>
<path d="M264.255 25.1862C265.38 26.9934 266.751 28.6133 268.326 30.0441C269.204 30.8414 270.368 31.5325 271.103 32.471C271.341 32.7743 271.438 33.2351 271.143 33.5271C270.256 34.4055 267.775 34.0308 267.769 35.7609C267.769 35.6847 267.769 35.6092 267.768 35.533C267.773 35.5906 267.778 35.649 267.782 35.7066C267.792 35.8258 267.773 35.9475 267.782 36.0667C267.714 35.2548 267.847 34.5921 268.639 34.1743C269.224 33.8661 269.885 33.7331 270.496 33.4881C270.755 33.3843 271.272 33.2464 271.31 32.9033C271.31 33.0152 271.309 33.1264 271.309 33.2383C271.301 32.8887 270.854 32.5643 270.621 32.3582C270.06 31.8602 269.465 31.4003 268.897 30.9104C267.091 29.3506 265.518 27.5758 264.255 25.5472C264.201 25.4588 264.308 25.2714 264.255 25.1862Z" fill="#050505"/>
<path d="M262.85 23.736C259.08 22.3911 253.867 23.6046 252.357 24.4579C250.847 25.3112 248.352 28.331 248.352 28.331C248.352 28.331 253.736 23.1349 262.85 25.1863C262.85 25.1863 263.502 23.968 262.85 23.736Z" fill="#050505"/>
<path d="M271.404 19.6649C269.886 20.5183 267.456 22.7302 267.456 23.1341C267.456 23.5381 267.782 24.4571 267.782 24.4571L272.358 21.0852L271.404 19.6649Z" fill="#050505"/>
</svg>
