<svg width="58" height="76" viewBox="0 0 58 76" fill="none" xmlns="http://www.w3.org/2000/svg">
<path fill-rule="evenodd" clip-rule="evenodd" d="M29.1909 3.80147C28.9663 3.54841 28.6847 3.43579 28.3463 3.46361C25.3436 7.5278 25.2122 11.6948 27.9521 15.9646C28.4026 16.5652 28.8531 16.5652 29.3036 15.9646C31.9673 11.8809 31.9298 7.82652 29.1909 3.80147ZM28.5717 4.47721C31.0926 8.0897 31.1114 11.7311 28.628 15.4015C26.1784 11.7694 26.1596 8.12801 28.5717 4.47721Z" fill="black"/>
<path fill-rule="evenodd" clip-rule="evenodd" d="M28.9138 0.98584H28.3507C27.5771 1.89069 26.8826 2.86674 26.2672 3.914C25.8279 4.57575 25.5087 5.28902 25.3099 6.05381C25.001 5.95378 24.7007 5.82238 24.409 5.65963C23.2578 5.59085 22.7323 6.13519 22.8323 7.29264C20.7144 6.74107 18.9688 7.30417 17.5954 8.98196C17.2479 9.48878 16.9289 10.0144 16.6381 10.5587C15.3014 9.89433 14.5882 10.3073 14.4983 11.7975C12.699 11.5431 11.3288 12.1812 10.3876 13.7121C10.0572 14.2717 9.85072 14.8723 9.76819 15.514C8.63789 15.3739 8.16865 15.8619 8.36042 16.9781C8.44877 17.1792 8.58017 17.3482 8.75459 17.4849C7.44448 18.7128 7.59464 19.7264 9.20508 20.5257C8.694 20.7186 8.52507 21.0753 8.69828 21.5956C9.098 21.9926 9.52971 22.0301 9.99343 21.7082H9.3177V20.1315C9.06869 20.0789 8.84345 19.9663 8.64197 19.7936C8.81601 19.6864 9.00371 19.6489 9.20508 19.681C9.07125 19.5837 8.93987 19.4711 8.8109 19.3431C8.76129 18.3047 9.26809 17.8354 10.3313 17.9354C10.9617 18.7379 11.7501 19.3197 12.6963 19.681C12.6668 19.5145 12.7043 19.3644 12.809 19.2305C13.3028 19.3633 13.7909 19.5135 14.273 19.681C15.4354 19.6072 16.5991 19.5884 17.7643 19.6247C17.582 19.5981 17.4694 19.5043 17.4264 19.3431C16.1454 19.5026 14.8689 19.4838 13.5973 19.2868C11.3496 18.4867 10.4299 16.9288 10.8381 14.613C11.4771 13.1582 12.5846 12.5013 14.1604 12.6422C15.8849 12.9574 16.5043 13.9523 16.0187 15.6266C15.1954 16.5428 14.3884 16.524 13.5973 15.5703C13.4096 15.4952 13.2219 15.4952 13.0342 15.5703C12.9417 16.0155 13.0919 16.3909 13.4847 16.6965C15.3734 17.526 16.5935 16.9442 17.1449 14.9509C18.6769 16.8349 20.6478 18.0175 23.0575 18.4985C22.9949 18.5416 22.9574 18.5979 22.9449 18.6674H23.508C23.4957 18.1741 23.2705 18.0239 22.8323 18.2169V17.8791C22.4632 17.8471 22.1067 17.8846 21.7624 17.9917C21.6152 17.8484 21.4462 17.7358 21.2556 17.6538C21.3774 17.6258 21.5276 17.6071 21.7061 17.5975C21.4513 17.5186 21.3387 17.3871 21.3682 17.2033C21.735 17.4713 22.148 17.5839 22.607 17.5412C21.6767 17.2457 20.7757 16.8515 19.9041 16.3587C17.6973 15.1166 16.8903 13.2583 17.4828 10.7839C18.3666 8.62466 19.962 7.70492 22.2692 8.02468C23.4181 8.32797 24.0564 9.06001 24.1837 10.2208C24.2149 11.0511 23.8771 11.6705 23.1701 12.0791C21.9213 12.497 21.1892 12.0653 20.974 10.7839C20.7113 10.4836 20.4484 10.4836 20.1857 10.7839C20.1518 11.8782 20.6586 12.6103 21.7061 12.98C22.9694 13.2228 23.9643 12.8287 24.6905 11.7975C25.1898 14.1623 26.1846 16.2834 27.675 18.1606C27.3392 18.2167 27.0013 18.2355 26.6614 18.2169C27.3246 18.4066 27.9629 18.3315 28.576 17.9917C28.8064 18.1567 29.0129 18.1192 29.1954 17.8791C29.8546 18.4685 30.5491 18.5436 31.2789 18.1043C30.7948 18.1831 30.3068 18.2206 29.8148 18.2169C30.3627 17.0838 30.9446 15.9576 31.5604 14.8383C31.9063 13.8568 32.263 12.8808 32.6303 11.9101C33.1559 12.5953 33.8505 12.9707 34.7138 13.0363C36.0779 13.0605 36.8475 12.4035 37.0226 11.0655C37.0672 10.6219 36.8794 10.4717 36.4595 10.615C36.3079 11.0129 36.139 11.4071 35.9527 11.7975C34.8535 12.5363 33.9525 12.3486 33.2498 11.2344C32.7627 9.637 33.307 8.5671 34.8828 8.02468C37.4377 7.71594 39.1082 8.78584 39.8944 11.2344C40.2443 13.1897 39.6249 14.7476 38.0362 15.9082C36.4938 16.8659 34.8421 17.523 33.0808 17.8791H34.5449V18.3295C35.1161 18.1955 35.6792 18.0266 36.2342 17.8227C37.8588 17.2484 39.1539 16.2536 40.1197 14.8383C40.2567 15.6196 40.6134 16.2766 41.1896 16.8092C42.4185 17.3764 43.4509 17.1325 44.2867 16.0771C44.3918 15.561 44.1853 15.392 43.6672 15.5703L43.2168 16.0208C42.2365 16.5526 41.5421 16.3086 41.1333 15.2888C40.874 14.3783 41.1181 13.6463 41.8653 13.0926C43.0531 12.3988 44.2168 12.4363 45.3566 13.2053C46.4208 14.0702 46.815 15.1777 46.5391 16.5276C45.9313 18.0552 44.8239 18.9937 43.2168 19.3431C43.5527 19.4158 43.8719 19.4534 44.174 19.4558C44.3662 19.3648 44.46 19.2146 44.4556 19.0053C44.6469 18.9873 44.8347 19.0059 45.0187 19.0616C44.8577 19.274 44.6699 19.4617 44.4556 19.6247C44.5182 19.6678 44.5557 19.7241 44.5682 19.7936C45.1072 19.462 45.6327 19.1053 46.1449 18.7237C46.4498 18.3047 46.844 18.0231 47.3274 17.8791C48.1758 18.0132 48.5513 18.5012 48.4537 19.3431C47.8967 19.7151 47.2773 19.9029 46.5954 19.9062C46.5569 20.0006 46.4819 20.0382 46.3702 20.0189C46.0483 20.0939 45.7104 20.169 45.3566 20.2441C45.5653 20.386 45.7717 20.386 45.976 20.2441C46.0605 20.3146 46.1544 20.3709 46.2575 20.413L45.3566 20.5257L46.1449 20.6383L45.8071 20.7509C46.3441 20.8533 46.3628 20.9472 45.8634 21.0325C45.3875 20.8835 44.8994 20.7708 44.3993 20.6946C44.2417 20.7765 44.0728 20.8328 43.8925 20.8635C44.4309 20.9423 44.4496 20.9986 43.9488 21.0325C43.116 20.8362 42.2713 20.761 41.4148 20.8072C43.4332 21.125 45.4604 21.4816 47.4964 21.8771C48.3589 22.1027 48.7156 21.7836 48.5663 20.9198C48.4075 20.7749 48.2385 20.6435 48.0595 20.5257C49.6516 19.7204 49.8017 18.7068 48.51 17.4849C48.927 17.1024 49.0583 16.6331 48.9041 16.0771C48.5502 15.6281 48.0809 15.4029 47.4964 15.4014C46.9533 12.8401 45.3766 11.6389 42.7663 11.7975C42.8513 10.85 42.4196 10.3244 41.4711 10.2208C41.1354 10.2385 40.835 10.3511 40.5702 10.5587C39.4288 7.85775 37.4205 6.76908 34.5449 7.29264C34.528 6.09292 33.9274 5.54859 32.743 5.65963C32.5324 5.81349 32.3071 5.94488 32.0672 6.05381C31.5158 4.91346 30.9339 3.78724 30.3216 2.67516C29.9067 2.05492 29.4374 1.49182 28.9138 0.98584ZM28.6318 1.88687C24.3734 7.23886 24.3546 12.6072 28.5755 17.9917C28.7662 17.8819 28.9351 17.7318 29.0823 17.5412C32.9023 12.2008 32.7522 6.98262 28.6318 1.88687ZM24.4075 8.08086C24.5399 8.0562 24.6525 8.09374 24.7454 8.19348C24.6837 8.73162 24.5336 8.76916 24.2949 8.30611C24.3358 8.22913 24.3733 8.15406 24.4075 8.08086ZM32.516 8.08102C33.0538 8.11351 33.1101 8.30122 32.6849 8.64412C32.542 8.48593 32.4857 8.29822 32.516 8.08102ZM15.5113 11.0095C16.0978 10.9947 16.2856 11.2575 16.0744 11.7978C15.3186 11.9429 15.131 11.6801 15.5113 11.0095ZM23.942 6.50487C24.5285 6.49012 24.7162 6.75291 24.5051 7.29322C23.7493 7.43829 23.5617 7.17551 23.942 6.50487ZM41.3015 11.0093C41.9759 11.0278 42.126 11.3093 41.752 11.854C41.0427 11.9098 40.8925 11.6282 41.3015 11.0093ZM32.9841 6.39175C33.6585 6.41022 33.8086 6.69177 33.4346 7.23641C32.7253 7.2922 32.5751 7.01065 32.9841 6.39175ZM9.20227 16.3024C9.58074 16.3816 9.61828 16.5318 9.31489 16.7529C9.07361 16.6474 9.03607 16.4972 9.20227 16.3024ZM47.7197 16.415C47.8862 16.3854 48.0363 16.4229 48.1702 16.5276C47.9491 16.831 47.7989 16.7935 47.7197 16.415Z" fill="black"/>
<path fill-rule="evenodd" clip-rule="evenodd" d="M22.6028 17.5412C23.9369 17.8637 25.2883 18.0889 26.6571 18.217C27.3204 18.4066 27.9586 18.3315 28.5717 17.9917C28.8021 18.1567 29.0087 18.1192 29.1911 17.8791C29.8503 18.4686 30.5448 18.5437 31.2746 18.1043C31.8653 17.9886 32.466 17.9134 33.0766 17.8791C33.5645 17.8791 34.0526 17.8791 34.5406 17.8791C34.5406 18.0292 34.5406 18.1795 34.5406 18.3296C34.2566 18.3722 33.9939 18.466 33.7523 18.6111C35.9729 18.8306 38.1879 19.0934 40.3969 19.3995C41.3409 19.4865 42.2794 19.4677 43.2125 19.3432C43.5484 19.4158 43.8676 19.4534 44.1698 19.4558C44.3619 19.3648 44.4557 19.2147 44.4513 19.0053C44.6427 18.9873 44.8304 19.006 45.0144 19.0616C44.8534 19.274 44.6656 19.4618 44.4513 19.6247C44.5139 19.6679 44.5514 19.7242 44.5639 19.7937C44.4751 19.8255 44.4 19.8818 44.3387 19.9626C45.0134 20.0188 45.6891 20.0376 46.3659 20.0189C46.044 20.0939 45.7061 20.169 45.3523 20.2441C45.561 20.3861 45.7674 20.3861 45.9717 20.2441C46.0562 20.3146 46.1501 20.371 46.2533 20.4131C45.9529 20.4506 45.6527 20.4882 45.3523 20.5257C45.615 20.5632 45.8779 20.6008 46.1406 20.6383C46.028 20.6758 45.9154 20.7134 45.8028 20.7509C46.3399 20.8533 46.3586 20.9472 45.8591 21.0325C45.3833 20.8835 44.8952 20.7709 44.395 20.6946C44.2374 20.7765 44.0685 20.8328 43.8882 20.8636C44.4267 20.9423 44.4454 20.9986 43.9445 21.0325C43.1117 20.8362 42.267 20.7611 41.4105 20.8073C37.9239 20.4231 34.4326 20.0664 30.9367 19.7374C29.4727 19.6622 28.0086 19.6622 26.5445 19.7374C20.9943 20.1449 15.4758 20.8019 9.98915 21.7082C9.76391 21.7082 9.53867 21.7082 9.31342 21.7082C9.31342 21.1826 9.31342 20.6571 9.31342 20.1315C9.06442 20.0789 8.83918 19.9663 8.6377 19.7937C8.81173 19.6864 8.99944 19.6489 9.2008 19.681C10.4276 20.046 11.6664 20.1024 12.9173 19.85C12.8141 19.8187 12.7391 19.7624 12.6921 19.681C12.6626 19.5146 12.7001 19.3645 12.8047 19.2306C13.2985 19.3633 13.7866 19.5136 14.2688 19.681C15.4311 19.6073 16.5949 19.5885 17.76 19.6247C17.5777 19.5982 17.4651 19.5043 17.4222 19.3432C19.2429 19.0876 21.0824 18.8624 22.9406 18.6674C23.1284 18.6674 23.316 18.6674 23.5037 18.6674C23.4915 18.1742 23.2662 18.0239 22.828 18.217C22.828 18.1043 22.828 17.9917 22.828 17.8791C22.4589 17.8471 22.1024 17.8846 21.7581 17.9917C21.6109 17.8485 21.442 17.7358 21.2513 17.6539C21.3732 17.6258 21.5233 17.6071 21.7018 17.5975C21.447 17.5186 21.3344 17.3872 21.3639 17.2034C21.7307 17.4713 22.1437 17.5839 22.6028 17.5412Z" fill="black"/>
<path fill-rule="evenodd" clip-rule="evenodd" d="M54.3962 38.3519V36.8878C54.2813 33.8363 54.0372 30.7955 53.6641 27.7655C53.2416 27.4131 52.7723 27.1315 52.2564 26.9208C49.1704 25.7646 45.9795 25.1264 42.6835 25.0062C37.2401 24.6055 32.5287 26.2385 28.5495 29.9053C28.3734 29.288 28.2608 28.6498 28.2117 27.9907C28.0853 27.7515 27.9164 27.5451 27.7049 27.3713C24.6321 25.9704 21.4036 25.2197 18.0194 25.1189C14.3196 24.6659 10.7908 25.229 7.43302 26.8082C4.49258 28.1344 2.334 30.2554 0.957283 33.1713C-0.592951 37.2458 -0.255086 41.1501 1.97088 44.8839C3.34985 46.6385 4.94532 48.1588 6.75729 49.4451C9.63471 51.3914 12.6754 53.0807 15.8796 54.5131C17.5572 55.4387 19.0401 56.6212 20.3282 58.0606C22.8461 61.0421 23.2965 64.3081 21.6796 67.8587C19.6388 70.8681 16.8045 72.0882 13.1767 71.5189C9.52332 70.4527 6.65147 68.3317 4.56117 65.1558C3.5466 63.0896 2.62685 60.9873 1.80194 58.849C1.14184 58.623 0.559962 58.7356 0.056311 59.1868C-0.0187703 59.9377 -0.0187703 60.6884 0.056311 61.4393C0.477753 65.0446 0.890698 68.6485 1.29515 72.2509L1.80194 72.7577C5.9159 74.5167 10.2143 75.4364 14.6971 75.517C19.072 75.4159 23.0701 74.1771 26.6913 71.8004C26.7555 72.2973 27.0182 72.6539 27.4796 72.8704C29.1228 73.5683 30.8121 74.1314 32.5476 74.5597C38.0101 76.0606 43.3783 75.7977 48.6525 73.7713C54.9854 70.6615 57.8197 65.5747 57.1554 58.5111C56.821 56.0037 55.8449 53.7889 54.2272 51.8664C51.956 49.6316 49.4596 47.6983 46.7379 46.0664C44.5845 45.0836 42.4447 44.07 40.3185 43.0257C38.5135 42.0093 37.0306 40.639 35.8699 38.915C33.8558 35.1913 34.5127 32.0566 37.8408 29.5111C40.3515 28.2414 42.8667 28.2414 45.3865 29.5111C47.4281 30.727 49.0986 32.3225 50.3981 34.2975C51.1055 35.6557 51.8 37.0072 52.4816 38.3519H54.3962ZM22.1858 31.0878C20.0339 29.1755 17.5187 28.3309 14.6401 28.5538C14.1836 28.7724 13.6954 28.9414 13.176 29.0606C9.5925 31.0674 8.48506 34.0144 9.85371 37.9014C10.9874 40.0112 12.5829 41.6818 14.6401 42.9131C16.9642 44.0375 19.2916 45.1637 21.6226 46.2917C24.4867 47.9604 27.0207 50.0439 29.2246 52.5422C30.4929 54.1678 31.2813 56.0074 31.5896 58.0607C32.0018 60.7911 31.7578 63.4565 30.8576 66.0568C32.2843 68.0867 34.1239 69.6446 36.3761 70.7306C39.473 72.1804 42.4387 71.9551 45.2732 70.0549C48.009 67.5395 48.7786 64.5175 47.5819 60.9888C46.595 58.8 45.1122 57.0169 43.1333 55.6393C40.9846 54.2643 38.7322 53.0631 36.3761 52.0354C33.5131 50.4495 30.9041 48.5161 28.5489 46.2354C25.9427 43.1324 24.9666 39.566 25.6207 35.5364C24.7346 33.8603 23.5897 32.3776 22.1858 31.0878Z" fill="url(#paint0_linear_660_3812)"/>
<defs>
<linearGradient id="paint0_linear_660_3812" x1="5.00938" y1="30.4333" x2="43.6531" y2="76.9489" gradientUnits="userSpaceOnUse">
<stop/>
<stop offset="0.196521" stop-color="#383838"/>
<stop offset="0.341403" stop-color="#B5B5B5"/>
<stop offset="0.470401"/>
<stop offset="0.628918"/>
<stop offset="0.739683" stop-color="#9B9B9B"/>
<stop offset="0.789638" stop-color="#161616"/>
<stop offset="1" stop-color="#161616"/>
</linearGradient>
</defs>
</svg>
